<?xml version="1.0" encoding="utf-8"?>
<!-- Generator: Adobe Illustrator 23.0.3, SVG Export Plug-In . SVG Version: 6.00 Build 0)  -->
<svg version="1.1" id="Layer_2" xmlns="http://www.w3.org/2000/svg" xmlns:xlink="http://www.w3.org/1999/xlink" x="0px" y="0px"
	 viewBox="0 0 612 792" style="enable-background:new 0 0 612 792;" xml:space="preserve">
<style type="text/css">
	.st0{fill:#EF3F3A;}
	.st1{fill:#861F1F;}
	.st2{fill:#FFFFFF;}
</style>
<rect x="8.77" y="242.18" class="st0" width="589.86" height="355.28"/>
<g>
	<path class="st1" d="M322.27,299.83v241.31h84.22V299.83H322.27z M359.57,431.13c-2.66,2.21-6.38,3.31-11.16,3.31h-15.36v-44.03
		h12.44c5.84,0,10.07,0.87,12.68,2.62c2.61,1.75,3.91,4.51,3.91,8.28c0,2.61-0.73,4.76-2.18,6.46c-1.45,1.7-3.58,2.8-6.37,3.3v0.3
		c6.69,1.14,10.03,4.66,10.03,10.54C363.56,425.85,362.23,428.93,359.57,431.13z M396.27,434.45h-3.7l-0.99-4.7h-0.24
		c-1.65,2.07-3.29,3.47-4.92,4.2c-1.64,0.73-3.68,1.1-6.13,1.1c-3.27,0-5.84-0.84-7.69-2.53c-1.86-1.69-2.79-4.09-2.79-7.2
		c0-6.67,5.33-10.16,15.99-10.48l5.6-0.18v-2.05c0-2.59-0.56-4.5-1.67-5.74c-1.11-1.23-2.9-1.85-5.35-1.85
		c-2.75,0-5.86,0.84-9.34,2.53l-1.54-3.82c1.63-0.88,3.41-1.58,5.35-2.08c1.94-0.5,3.88-0.75,5.83-0.75c3.94,0,6.85,0.87,8.75,2.62
		c1.9,1.75,2.85,4.55,2.85,8.4V434.45z"/>
	<path class="st1" d="M377.67,420.28c-1.76,1.09-2.64,2.8-2.64,5.1c0,1.81,0.55,3.18,1.64,4.13c1.09,0.94,2.62,1.42,4.59,1.42
		c3.11,0,5.56-0.85,7.33-2.56c1.78-1.71,2.67-4.1,2.67-7.17v-2.98l-5,0.21C382.29,418.57,379.43,419.18,377.67,420.28z"/>
	<path class="st1" d="M354.41,407.57c1.59-1.13,2.38-3.05,2.38-5.74c0-2.47-0.88-4.25-2.65-5.35c-1.77-1.09-4.58-1.64-8.43-1.64
		h-7.53v14.43h8.43C350.22,409.27,352.82,408.7,354.41,407.57z"/>
	<path class="st1" d="M355.33,415.53c-1.84-1.28-4.63-1.93-8.39-1.93h-8.76v16.47h9.18c3.55,0,6.23-0.69,8.03-2.06
		c1.8-1.37,2.7-3.53,2.7-6.46C358.08,418.83,357.16,416.82,355.33,415.53z"/>
</g>
<rect x="97.99" y="298.18" class="st2" width="413.54" height="2.84"/>
<rect x="97.99" y="539.49" class="st2" width="413.54" height="2.84"/>
<polygon class="st2" points="427.31,310.93 430.48,310.96 425.63,302.12 420.99,310.86 423.86,310.89 423.86,530.04 420.96,530.08 
	425.59,538.81 430.44,529.97 427.31,530 "/>
<polygon class="st2" points="305.05,310.93 308.21,310.96 303.36,302.12 298.72,310.86 301.6,310.89 301.6,530.04 298.69,530.08 
	303.33,538.81 308.18,529.97 305.05,530 "/>
<polygon class="st2" points="117.18,310.93 120.34,310.96 115.49,302.12 110.85,310.86 113.73,310.89 113.73,530.04 110.82,530.08 
	115.46,538.81 120.31,529.97 117.18,530 "/>
<g>
	<path class="st2" d="M234.93,403.73l1.32-0.28v-10.77l-1.46-0.28v-1.65h4.19v5.77c0.32-0.47,0.71-0.83,1.17-1.09
		c0.46-0.26,0.97-0.39,1.54-0.39c1.06,0,1.89,0.35,2.5,1.05c0.6,0.7,0.9,1.79,0.9,3.26v4.09l1.31,0.28v1.64h-5.23v-1.64l1.18-0.28
		v-4.11c0-0.79-0.14-1.34-0.42-1.67c-0.28-0.33-0.69-0.49-1.24-0.49c-0.38,0-0.71,0.07-1,0.21c-0.28,0.14-0.52,0.33-0.72,0.58v5.49
		l1.18,0.28v1.64h-5.23V403.73z"/>
	<path class="st2" d="M252.04,405.57c-1.46,0-2.63-0.47-3.5-1.41c-0.87-0.94-1.31-2.13-1.31-3.57v-0.37c0-1.5,0.41-2.75,1.24-3.72
		c0.83-0.97,1.94-1.46,3.33-1.45c1.37,0,2.43,0.41,3.19,1.24c0.76,0.82,1.13,1.94,1.13,3.34v1.49h-6.05l-0.02,0.06
		c0.05,0.67,0.27,1.22,0.67,1.65c0.4,0.43,0.94,0.65,1.62,0.65c0.61,0,1.11-0.06,1.51-0.18c0.4-0.12,0.84-0.31,1.31-0.58l0.74,1.69
		c-0.42,0.33-0.96,0.61-1.62,0.83C253.6,405.45,252.85,405.57,252.04,405.57z M251.79,397.15c-0.51,0-0.91,0.19-1.2,0.58
		c-0.29,0.39-0.48,0.9-0.54,1.53l0.03,0.05h3.35v-0.24c0-0.58-0.14-1.04-0.41-1.39C252.75,397.33,252.34,397.15,251.79,397.15z"/>
	<path class="st2" d="M257.32,403.73l1.32-0.28v-6.29l-1.46-0.28v-1.65h4.2v8.22l1.31,0.28v1.64h-5.37V403.73z M261.38,392.81h-2.74
		v-2.05h2.74V392.81z"/>
	<path class="st2" d="M263.76,400.38c0-1.6,0.35-2.89,1.05-3.87c0.7-0.98,1.67-1.47,2.93-1.47c0.57,0,1.07,0.13,1.5,0.38
		c0.43,0.25,0.8,0.61,1.11,1.08l0.2-1.27h2.38v9.84c0,1.34-0.42,2.4-1.26,3.2c-0.84,0.8-1.99,1.19-3.46,1.19
		c-0.51,0-1.06-0.07-1.63-0.21c-0.57-0.14-1.11-0.33-1.59-0.58l0.51-1.92c0.44,0.19,0.87,0.34,1.31,0.45
		c0.44,0.11,0.9,0.16,1.39,0.16c0.67,0,1.17-0.2,1.5-0.61c0.33-0.41,0.5-0.97,0.5-1.7v-0.67c-0.3,0.38-0.65,0.67-1.06,0.87
		c-0.41,0.2-0.87,0.3-1.4,0.3c-1.24,0-2.21-0.46-2.91-1.37c-0.7-0.92-1.05-2.12-1.05-3.61V400.38z M266.49,400.58
		c0,0.89,0.15,1.58,0.45,2.09c0.3,0.51,0.79,0.76,1.46,0.76c0.42,0,0.77-0.08,1.06-0.23c0.29-0.15,0.52-0.38,0.7-0.67v-4.4
		c-0.18-0.31-0.41-0.54-0.7-0.71c-0.29-0.17-0.64-0.25-1.05-0.25c-0.67,0-1.16,0.3-1.47,0.89c-0.31,0.59-0.46,1.37-0.46,2.32V400.58
		z"/>
	<path class="st2" d="M274.4,403.73l1.32-0.28v-10.77l-1.46-0.28v-1.65h4.19v5.77c0.32-0.47,0.71-0.83,1.17-1.09
		c0.46-0.26,0.97-0.39,1.54-0.39c1.06,0,1.89,0.35,2.5,1.05c0.6,0.7,0.9,1.79,0.9,3.26v4.09l1.31,0.28v1.64h-5.23v-1.64l1.18-0.28
		v-4.11c0-0.79-0.14-1.34-0.42-1.67c-0.28-0.33-0.69-0.49-1.24-0.49c-0.38,0-0.71,0.07-1,0.21c-0.28,0.14-0.52,0.33-0.72,0.58v5.49
		l1.18,0.28v1.64h-5.23V403.73z"/>
	<path class="st2" d="M290.79,392.75v2.48h1.78v1.92h-1.78v5.16c0,0.39,0.08,0.67,0.24,0.84c0.16,0.17,0.38,0.25,0.66,0.25
		c0.19,0,0.35-0.01,0.49-0.02c0.14-0.02,0.3-0.04,0.47-0.08l0.23,1.98c-0.31,0.09-0.61,0.16-0.91,0.21
		c-0.3,0.05-0.63,0.07-0.97,0.07c-0.94,0-1.67-0.26-2.18-0.78c-0.51-0.52-0.76-1.34-0.76-2.46v-5.17h-1.49v-1.92h1.49v-2.48H290.79z
		"/>
	<path class="st2" d="M280.29,418.13c0-1.08,0.3-1.96,0.91-2.65c0.6-0.69,1.44-1.03,2.51-1.03c1.07,0,1.91,0.34,2.51,1.03
		c0.6,0.69,0.91,1.57,0.91,2.66v0.14c0,1.09-0.3,1.98-0.91,2.66c-0.6,0.68-1.44,1.03-2.5,1.03c-1.07,0-1.92-0.34-2.52-1.03
		c-0.6-0.69-0.91-1.57-0.91-2.66V418.13z M282.24,418.27c0,0.66,0.12,1.19,0.35,1.59c0.23,0.4,0.61,0.6,1.12,0.6
		c0.5,0,0.87-0.2,1.11-0.6c0.24-0.4,0.35-0.93,0.35-1.59v-0.14c0-0.64-0.12-1.17-0.35-1.57c-0.24-0.41-0.61-0.61-1.12-0.61
		s-0.88,0.2-1.11,0.61c-0.23,0.41-0.35,0.93-0.35,1.57V418.27z"/>
	<path class="st2" d="M288.12,420.65l0.94-0.2v-4.49l-1.04-0.2v-1.18h2.86l0.09,1.06c0.17-0.37,0.39-0.67,0.66-0.88
		c0.27-0.21,0.58-0.31,0.93-0.31c0.1,0,0.21,0.01,0.33,0.02c0.11,0.01,0.21,0.03,0.28,0.06l-0.21,1.78l-0.8-0.02
		c-0.29,0-0.52,0.06-0.71,0.17c-0.19,0.11-0.33,0.27-0.43,0.48v3.52l0.94,0.2v1.17h-3.83V420.65z"/>
	<path class="st2" d="M192.54,431.87v-1.65h4.2v12.7l1.32,0.28v1.64h-5.38v-1.64l1.32-0.28v-10.77L192.54,431.87z"/>
	<path class="st2" d="M198.87,443.2l1.32-0.28v-6.29l-1.46-0.28v-1.65h4.2v8.22l1.31,0.28v1.64h-5.37V443.2z M202.92,432.28h-2.74
		v-2.05h2.74V432.28z"/>
	<path class="st2" d="M204.98,443.2l1.31-0.28v-6.29l-1.45-0.28v-1.65h4l0.12,1.45c0.34-0.52,0.75-0.92,1.25-1.21
		c0.49-0.29,1.05-0.43,1.66-0.43c1.02,0,1.82,0.32,2.4,0.97c0.57,0.64,0.86,1.65,0.86,3.03v4.41l1.31,0.28v1.64h-5.23v-1.64
		l1.17-0.28v-4.4c0-0.68-0.14-1.16-0.41-1.45c-0.27-0.29-0.69-0.43-1.25-0.43c-0.36,0-0.69,0.07-0.97,0.22
		c-0.29,0.15-0.53,0.35-0.72,0.62v5.43l1.11,0.28v1.64h-5.15V443.2z"/>
	<path class="st2" d="M222.07,445.04c-1.46,0-2.63-0.47-3.5-1.41c-0.87-0.94-1.31-2.13-1.31-3.57v-0.37c0-1.5,0.41-2.75,1.24-3.72
		c0.83-0.97,1.94-1.46,3.33-1.45c1.37,0,2.43,0.41,3.19,1.24c0.76,0.82,1.13,1.94,1.13,3.34v1.49h-6.05l-0.02,0.06
		c0.05,0.67,0.27,1.22,0.67,1.65c0.4,0.43,0.94,0.65,1.62,0.65c0.61,0,1.11-0.06,1.51-0.18c0.4-0.12,0.84-0.31,1.31-0.58l0.74,1.69
		c-0.42,0.33-0.96,0.61-1.62,0.83C223.63,444.93,222.89,445.04,222.07,445.04z M221.83,436.63c-0.51,0-0.91,0.19-1.2,0.58
		c-0.29,0.39-0.48,0.9-0.54,1.53l0.03,0.05h3.35v-0.24c0-0.58-0.14-1.04-0.41-1.39C222.79,436.8,222.38,436.63,221.83,436.63z"/>
	<path class="st2" d="M233.36,440.06h-5.28v-2.11h5.28V440.06z"/>
	<path class="st2" d="M234.93,443.2l1.32-0.28v-10.77l-1.46-0.28v-1.65h4.19V436c0.32-0.47,0.71-0.83,1.17-1.09
		c0.46-0.26,0.97-0.39,1.54-0.39c1.06,0,1.89,0.35,2.5,1.05c0.6,0.7,0.9,1.79,0.9,3.26v4.09l1.31,0.28v1.64h-5.23v-1.64l1.18-0.28
		v-4.11c0-0.79-0.14-1.34-0.42-1.67c-0.28-0.33-0.69-0.49-1.24-0.49c-0.38,0-0.71,0.07-1,0.21c-0.28,0.14-0.52,0.33-0.72,0.58v5.49
		l1.18,0.28v1.64h-5.23V443.2z"/>
	<path class="st2" d="M252.04,445.04c-1.46,0-2.63-0.47-3.5-1.41c-0.87-0.94-1.31-2.13-1.31-3.57v-0.37c0-1.5,0.41-2.75,1.24-3.72
		c0.83-0.97,1.94-1.46,3.33-1.45c1.37,0,2.43,0.41,3.19,1.24c0.76,0.82,1.13,1.94,1.13,3.34v1.49h-6.05l-0.02,0.06
		c0.05,0.67,0.27,1.22,0.67,1.65c0.4,0.43,0.94,0.65,1.62,0.65c0.61,0,1.11-0.06,1.51-0.18c0.4-0.12,0.84-0.31,1.31-0.58l0.74,1.69
		c-0.42,0.33-0.96,0.61-1.62,0.83C253.6,444.93,252.85,445.04,252.04,445.04z M251.79,436.63c-0.51,0-0.91,0.19-1.2,0.58
		c-0.29,0.39-0.48,0.9-0.54,1.53l0.03,0.05h3.35v-0.24c0-0.58-0.14-1.04-0.41-1.39C252.75,436.8,252.34,436.63,251.79,436.63z"/>
	<path class="st2" d="M257.32,443.2l1.32-0.28v-6.29l-1.46-0.28v-1.65h4.2v8.22l1.31,0.28v1.64h-5.37V443.2z M261.38,432.28h-2.74
		v-2.05h2.74V432.28z"/>
	<path class="st2" d="M263.76,439.86c0-1.6,0.35-2.89,1.05-3.87c0.7-0.98,1.67-1.47,2.93-1.47c0.57,0,1.07,0.13,1.5,0.38
		c0.43,0.25,0.8,0.61,1.11,1.08l0.2-1.27h2.38v9.84c0,1.34-0.42,2.4-1.26,3.2c-0.84,0.8-1.99,1.19-3.46,1.19
		c-0.51,0-1.06-0.07-1.63-0.21c-0.57-0.14-1.11-0.33-1.59-0.58l0.51-1.92c0.44,0.19,0.87,0.34,1.31,0.45
		c0.44,0.11,0.9,0.16,1.39,0.16c0.67,0,1.17-0.2,1.5-0.61c0.33-0.41,0.5-0.97,0.5-1.7v-0.67c-0.3,0.38-0.65,0.67-1.06,0.87
		c-0.41,0.2-0.87,0.3-1.4,0.3c-1.24,0-2.21-0.46-2.91-1.37c-0.7-0.92-1.05-2.12-1.05-3.61V439.86z M266.49,440.05
		c0,0.89,0.15,1.58,0.45,2.09c0.3,0.51,0.79,0.76,1.46,0.76c0.42,0,0.77-0.08,1.06-0.23c0.29-0.15,0.52-0.38,0.7-0.67v-4.4
		c-0.18-0.31-0.41-0.54-0.7-0.71c-0.29-0.17-0.64-0.25-1.05-0.25c-0.67,0-1.16,0.3-1.47,0.89c-0.31,0.59-0.46,1.37-0.46,2.32V440.05
		z"/>
	<path class="st2" d="M274.4,443.2l1.32-0.28v-10.77l-1.46-0.28v-1.65h4.19V436c0.32-0.47,0.71-0.83,1.17-1.09
		c0.46-0.26,0.97-0.39,1.54-0.39c1.06,0,1.89,0.35,2.5,1.05c0.6,0.7,0.9,1.79,0.9,3.26v4.09l1.31,0.28v1.64h-5.23v-1.64l1.18-0.28
		v-4.11c0-0.79-0.14-1.34-0.42-1.67c-0.28-0.33-0.69-0.49-1.24-0.49c-0.38,0-0.71,0.07-1,0.21c-0.28,0.14-0.52,0.33-0.72,0.58v5.49
		l1.18,0.28v1.64h-5.23V443.2z"/>
	<path class="st2" d="M290.79,432.22v2.48h1.78v1.92h-1.78v5.16c0,0.39,0.08,0.67,0.24,0.84c0.16,0.17,0.38,0.25,0.66,0.25
		c0.19,0,0.35-0.01,0.49-0.02c0.14-0.02,0.3-0.04,0.47-0.08l0.23,1.98c-0.31,0.09-0.61,0.16-0.91,0.21
		c-0.3,0.05-0.63,0.07-0.97,0.07c-0.94,0-1.67-0.26-2.18-0.78c-0.51-0.52-0.76-1.34-0.76-2.46v-5.17h-1.49v-1.92h1.49v-2.48H290.79z
		"/>
	<path class="st2" d="M198.79,458.58c0-1.92,0.37-3.56,1.12-4.9c0.75-1.34,1.59-2.21,2.53-2.61h0.04l0.39,1.07
		c-0.64,0.48-1.18,1.26-1.62,2.33c-0.44,1.07-0.66,2.43-0.66,4.09v0.19c0,1.66,0.22,3.03,0.66,4.1c0.44,1.07,0.98,1.85,1.62,2.34
		l-0.39,1.05h-0.04c-0.94-0.4-1.79-1.27-2.53-2.61c-0.75-1.34-1.12-2.97-1.12-4.9V458.58z"/>
	<path class="st2" d="M207.02,456.26l-0.75,0.14l1.05,3.56l0.14,0.75h0.04l0.16-0.75l1.04-3.56l-0.77-0.15v-1.3h3.62v1.3l-0.69,0.11
		l-2.35,6.56h-2.05l-2.36-6.56l-0.69-0.11v-1.3h3.62V456.26z"/>
	<path class="st2" d="M212.17,461.65l1.04-0.22v-4.94l-1.15-0.22v-1.3h3.3v6.46l1.03,0.22v1.29h-4.22V461.65z M215.36,453.06h-2.15
		v-1.61h2.15V453.06z"/>
	<path class="st2" d="M217.26,461.65l1.03-0.22v-4.94l-1.14-0.22v-1.3h3.14l0.1,1.16c0.19-0.41,0.43-0.73,0.72-0.96
		c0.29-0.23,0.64-0.35,1.02-0.35c0.11,0,0.23,0.01,0.36,0.03c0.13,0.02,0.23,0.04,0.31,0.06l-0.23,1.96l-0.88-0.02
		c-0.31,0-0.57,0.06-0.78,0.18c-0.21,0.12-0.36,0.3-0.47,0.52v3.87l1.03,0.22v1.29h-4.21V461.65z"/>
	<path class="st2" d="M226.79,453.02v1.95h1.4v1.51h-1.4v4.06c0,0.31,0.06,0.53,0.19,0.66c0.13,0.13,0.3,0.2,0.52,0.2
		c0.15,0,0.28-0.01,0.39-0.02c0.11-0.01,0.23-0.03,0.37-0.06l0.18,1.55c-0.24,0.07-0.48,0.13-0.71,0.16
		c-0.24,0.04-0.49,0.06-0.77,0.06c-0.74,0-1.31-0.2-1.71-0.61c-0.4-0.41-0.6-1.05-0.6-1.94v-4.06h-1.17v-1.51h1.17v-1.95H226.79z"/>
	<path class="st2" d="M234.81,461.93c-0.26,0.37-0.57,0.66-0.95,0.86c-0.37,0.2-0.8,0.3-1.28,0.3c-0.84,0-1.5-0.27-1.97-0.81
		c-0.48-0.54-0.71-1.37-0.71-2.51v-3.29l-0.88-0.22v-1.3h0.88h2.15v4.82c0,0.58,0.1,0.99,0.29,1.25c0.19,0.25,0.48,0.38,0.87,0.38
		c0.34,0,0.63-0.05,0.88-0.17c0.25-0.11,0.45-0.27,0.61-0.47v-4.29l-0.94-0.22v-1.3h0.94h2.15v6.46l0.97,0.22v1.29h-2.85
		L234.81,461.93z"/>
	<path class="st2" d="M243.72,462.93c-0.06-0.13-0.11-0.27-0.16-0.41c-0.04-0.14-0.08-0.28-0.1-0.42c-0.26,0.29-0.57,0.53-0.93,0.71
		c-0.37,0.18-0.78,0.27-1.26,0.27c-0.78,0-1.4-0.21-1.86-0.64s-0.69-1-0.69-1.73c0-0.75,0.3-1.32,0.9-1.73
		c0.6-0.41,1.48-0.61,2.64-0.61h1.1v-0.78c0-0.38-0.11-0.68-0.33-0.89c-0.22-0.21-0.55-0.32-0.98-0.32c-0.25,0-0.46,0.03-0.66,0.08
		c-0.19,0.06-0.35,0.12-0.46,0.2l-0.14,0.85h-1.62l0.01-1.77c0.39-0.27,0.84-0.49,1.35-0.67c0.51-0.18,1.06-0.27,1.66-0.27
		c0.99,0,1.79,0.24,2.4,0.73s0.92,1.17,0.92,2.07v3.29c0,0.12,0,0.24,0,0.35c0,0.11,0.01,0.21,0.03,0.31l0.66,0.09v1.29H243.72z
		 M241.86,461.5c0.32,0,0.62-0.07,0.88-0.21c0.27-0.14,0.47-0.32,0.62-0.53v-1.22h-1.1c-0.46,0-0.8,0.11-1.04,0.32
		c-0.24,0.21-0.35,0.47-0.35,0.77c0,0.27,0.09,0.48,0.26,0.63C241.31,461.42,241.55,461.5,241.86,461.5z"/>
	<path class="st2" d="M246.7,452.75v-1.3h3.3v9.98l1.04,0.22v1.29h-4.23v-1.29l1.04-0.22v-8.46L246.7,452.75z"/>
	<path class="st2" d="M256.39,459.18h-4.15v-1.66h4.15V459.18z"/>
	<path class="st2" d="M262.81,462.93c-0.06-0.13-0.11-0.27-0.16-0.41c-0.04-0.14-0.08-0.28-0.1-0.42c-0.26,0.29-0.57,0.53-0.93,0.71
		c-0.37,0.18-0.78,0.27-1.26,0.27c-0.78,0-1.4-0.21-1.86-0.64c-0.46-0.42-0.69-1-0.69-1.73c0-0.75,0.3-1.32,0.9-1.73
		c0.6-0.41,1.48-0.61,2.64-0.61h1.1v-0.78c0-0.38-0.11-0.68-0.33-0.89c-0.22-0.21-0.55-0.32-0.98-0.32c-0.25,0-0.46,0.03-0.66,0.08
		s-0.35,0.12-0.46,0.2l-0.14,0.85h-1.62l0.01-1.77c0.39-0.27,0.84-0.49,1.35-0.67c0.51-0.18,1.06-0.27,1.66-0.27
		c0.99,0,1.79,0.24,2.4,0.73s0.92,1.17,0.92,2.07v3.29c0,0.12,0,0.24,0,0.35c0,0.11,0.01,0.21,0.03,0.31l0.66,0.09v1.29H262.81z
		 M260.95,461.5c0.32,0,0.62-0.07,0.88-0.21c0.27-0.14,0.47-0.32,0.62-0.53v-1.22h-1.1c-0.46,0-0.8,0.11-1.04,0.32
		c-0.24,0.21-0.35,0.47-0.35,0.77c0,0.27,0.09,0.48,0.26,0.63C260.4,461.42,260.64,461.5,260.95,461.5z"/>
	<path class="st2" d="M266.18,461.65l1.03-0.22v-4.94l-1.14-0.22v-1.3h3.14l0.1,1.16c0.19-0.41,0.43-0.73,0.72-0.96
		c0.29-0.23,0.64-0.35,1.02-0.35c0.11,0,0.23,0.01,0.36,0.03c0.13,0.02,0.23,0.04,0.31,0.06l-0.23,1.96l-0.88-0.02
		c-0.31,0-0.57,0.06-0.78,0.18c-0.21,0.12-0.36,0.3-0.47,0.52v3.87l1.03,0.22v1.29h-4.21V461.65z"/>
	<path class="st2" d="M276.04,463.09c-1.15,0-2.07-0.37-2.75-1.1c-0.69-0.74-1.03-1.67-1.03-2.81v-0.29c0-1.18,0.33-2.16,0.98-2.92
		c0.65-0.77,1.52-1.15,2.62-1.14c1.08,0,1.91,0.32,2.5,0.97c0.59,0.65,0.89,1.52,0.89,2.63v1.17h-4.76l-0.01,0.04
		c0.04,0.53,0.21,0.96,0.53,1.3c0.31,0.34,0.73,0.51,1.27,0.51c0.48,0,0.87-0.05,1.19-0.14c0.31-0.1,0.66-0.25,1.03-0.45l0.58,1.33
		c-0.33,0.26-0.75,0.48-1.28,0.66C277.26,463,276.68,463.09,276.04,463.09z M275.85,456.48c-0.4,0-0.71,0.15-0.94,0.46
		c-0.23,0.3-0.37,0.7-0.43,1.2l0.02,0.04h2.64v-0.19c0-0.46-0.11-0.82-0.32-1.09C276.6,456.61,276.28,456.48,275.85,456.48z"/>
	<path class="st2" d="M285.33,462.93c-0.06-0.13-0.11-0.27-0.16-0.41c-0.04-0.14-0.08-0.28-0.1-0.42c-0.26,0.29-0.57,0.53-0.93,0.71
		c-0.37,0.18-0.78,0.27-1.26,0.27c-0.78,0-1.4-0.21-1.86-0.64c-0.46-0.42-0.69-1-0.69-1.73c0-0.75,0.3-1.32,0.9-1.73
		c0.6-0.41,1.48-0.61,2.64-0.61h1.1v-0.78c0-0.38-0.11-0.68-0.33-0.89c-0.22-0.21-0.55-0.32-0.98-0.32c-0.25,0-0.46,0.03-0.66,0.08
		c-0.19,0.06-0.35,0.12-0.46,0.2l-0.14,0.85h-1.62l0.01-1.77c0.39-0.27,0.84-0.49,1.35-0.67c0.51-0.18,1.06-0.27,1.66-0.27
		c0.99,0,1.79,0.24,2.4,0.73s0.92,1.17,0.92,2.07v3.29c0,0.12,0,0.24,0,0.35c0,0.11,0.01,0.21,0.03,0.31l0.66,0.09v1.29H285.33z
		 M283.47,461.5c0.32,0,0.62-0.07,0.88-0.21c0.27-0.14,0.47-0.32,0.62-0.53v-1.22h-1.1c-0.46,0-0.8,0.11-1.04,0.32
		c-0.24,0.21-0.35,0.47-0.35,0.77c0,0.27,0.09,0.48,0.26,0.63C282.92,461.42,283.16,461.5,283.47,461.5z"/>
	<path class="st2" d="M292.72,458.74c0,1.88-0.39,3.5-1.16,4.87c-0.78,1.37-1.64,2.25-2.59,2.64h-0.05l-0.4-1.05
		c0.63-0.48,1.17-1.26,1.61-2.33c0.44-1.07,0.66-2.44,0.66-4.11v-0.19c0-1.65-0.22-3.01-0.67-4.1c-0.45-1.08-0.98-1.87-1.6-2.35
		l0.4-1.05h0.05c0.95,0.39,1.81,1.27,2.59,2.64c0.77,1.37,1.16,2.99,1.16,4.87V458.74z"/>
</g>
<g>
	<path class="st2" d="M28.48,414.02v-1.65h4.2v12.7l1.32,0.28v1.64h-5.38v-1.64l1.32-0.28V414.3L28.48,414.02z"/>
	<path class="st2" d="M34.81,425.35l1.32-0.28v-6.29l-1.46-0.28v-1.65h4.2v8.22l1.31,0.28v1.64h-5.37V425.35z M38.86,414.43h-2.74
		v-2.05h2.74V414.43z"/>
	<path class="st2" d="M40.92,425.35l1.31-0.28v-6.29l-1.45-0.28v-1.65h4l0.12,1.45c0.34-0.52,0.75-0.92,1.25-1.21
		c0.49-0.29,1.05-0.43,1.66-0.43c1.02,0,1.82,0.32,2.4,0.97c0.57,0.64,0.86,1.65,0.86,3.03v4.41l1.31,0.28v1.64h-5.23v-1.64
		l1.17-0.28v-4.4c0-0.68-0.14-1.16-0.41-1.45c-0.28-0.29-0.69-0.43-1.25-0.43c-0.36,0-0.69,0.07-0.97,0.22
		c-0.29,0.15-0.53,0.35-0.72,0.62v5.43l1.11,0.28v1.64h-5.15V425.35z"/>
	<path class="st2" d="M58.01,427.19c-1.46,0-2.63-0.47-3.5-1.41s-1.31-2.13-1.31-3.57v-0.37c0-1.5,0.41-2.75,1.24-3.72
		c0.83-0.97,1.94-1.46,3.33-1.45c1.37,0,2.43,0.41,3.19,1.24s1.13,1.94,1.13,3.34v1.49h-6.05l-0.02,0.06
		c0.05,0.67,0.27,1.22,0.67,1.65c0.4,0.43,0.94,0.65,1.62,0.65c0.6,0,1.11-0.06,1.51-0.18s0.84-0.31,1.31-0.58l0.74,1.69
		c-0.42,0.33-0.96,0.61-1.62,0.83C59.57,427.07,58.83,427.19,58.01,427.19z M57.77,418.77c-0.51,0-0.91,0.19-1.2,0.58
		c-0.29,0.39-0.47,0.9-0.54,1.53l0.03,0.05h3.35v-0.24c0-0.58-0.14-1.04-0.41-1.39C58.73,418.95,58.32,418.77,57.77,418.77z"/>
	<path class="st2" d="M69.3,422.21h-5.28v-2.11h5.28V422.21z"/>
	<path class="st2" d="M80.82,422.2c0,1.51-0.34,2.72-1.01,3.63c-0.67,0.91-1.65,1.36-2.92,1.36c-0.59,0-1.11-0.12-1.55-0.37
		c-0.44-0.25-0.81-0.6-1.11-1.07l-0.2,1.25h-2.36V414.3l-1.45-0.28v-1.65h4.18v5.56c0.29-0.41,0.65-0.72,1.05-0.94
		c0.41-0.22,0.88-0.33,1.41-0.33c1.29,0,2.27,0.49,2.94,1.46c0.67,0.97,1.01,2.27,1.01,3.88V422.2z M78.09,422.01
		c0-0.99-0.14-1.77-0.44-2.35c-0.29-0.58-0.78-0.87-1.48-0.87c-0.42,0-0.78,0.09-1.08,0.27s-0.52,0.43-0.69,0.76v4.28
		c0.17,0.31,0.4,0.55,0.7,0.71c0.3,0.16,0.66,0.24,1.09,0.24c0.71,0,1.2-0.25,1.48-0.74c0.28-0.5,0.42-1.2,0.42-2.11V422.01z"/>
	<path class="st2" d="M82.08,421.83c0-1.51,0.42-2.75,1.27-3.71c0.85-0.97,2.02-1.45,3.51-1.45c1.5,0,2.67,0.48,3.52,1.44
		c0.85,0.96,1.27,2.2,1.27,3.72v0.2c0,1.52-0.42,2.77-1.27,3.72c-0.85,0.96-2.01,1.44-3.5,1.44c-1.51,0-2.68-0.48-3.53-1.44
		c-0.85-0.96-1.27-2.2-1.27-3.72V421.83z M84.82,422.02c0,0.92,0.16,1.67,0.49,2.23c0.33,0.56,0.85,0.84,1.57,0.84
		c0.71,0,1.22-0.28,1.55-0.84c0.33-0.56,0.49-1.3,0.49-2.22v-0.2c0-0.9-0.17-1.63-0.5-2.2c-0.33-0.57-0.85-0.85-1.56-0.85
		s-1.23,0.29-1.56,0.85c-0.33,0.57-0.49,1.3-0.49,2.2V422.02z"/>
	<path class="st2" d="M92.35,425.35l0.95-0.15l2.75-3.34l-2.66-3.2l-0.95-0.16v-1.65h4.56v1.58l-0.93,0.11l1.54,1.95l1.51-1.95
		l-0.95-0.11v-1.58h4.58v1.65l-0.92,0.16l-2.6,3.2l2.75,3.34l0.96,0.15v1.64H98.3v-1.57l0.93-0.11l-1.57-2.04l-1.6,2.05l0.82,0.1
		v1.57h-4.52V425.35z"/>
</g>
<g>
	<path class="st2" d="M438.52,425.83c0.49,0,0.88-0.14,1.17-0.43c0.29-0.29,0.44-0.66,0.44-1.14h2.47l0.03,0.06
		c0.03,1.03-0.36,1.88-1.15,2.57c-0.79,0.69-1.78,1.03-2.96,1.03c-1.51,0-2.68-0.48-3.49-1.43c-0.82-0.96-1.23-2.18-1.23-3.68v-0.28
		c0-1.49,0.42-2.72,1.26-3.68c0.84-0.96,2.04-1.44,3.59-1.44c0.82,0,1.55,0.12,2.2,0.37c0.65,0.24,1.19,0.59,1.62,1.03l0.04,2.71
		h-2.22l-0.45-1.58c-0.14-0.12-0.31-0.22-0.51-0.29c-0.2-0.08-0.43-0.12-0.68-0.12c-0.77,0-1.32,0.28-1.64,0.84
		c-0.32,0.56-0.48,1.29-0.48,2.17v0.28c0,0.91,0.15,1.64,0.44,2.19C437.27,425.56,437.79,425.83,438.52,425.83z"/>
	<path class="st2" d="M443.87,422.57c0-1.51,0.42-2.75,1.27-3.71c0.85-0.97,2.02-1.45,3.51-1.45c1.5,0,2.67,0.48,3.52,1.44
		c0.85,0.96,1.27,2.2,1.27,3.72v0.2c0,1.52-0.42,2.77-1.27,3.72c-0.85,0.96-2.01,1.44-3.5,1.44c-1.51,0-2.68-0.48-3.53-1.44
		c-0.85-0.96-1.27-2.2-1.27-3.72V422.57z M446.61,422.77c0,0.92,0.16,1.67,0.49,2.23c0.33,0.56,0.85,0.84,1.57,0.84
		c0.71,0,1.22-0.28,1.55-0.84c0.33-0.56,0.49-1.3,0.49-2.22v-0.2c0-0.9-0.17-1.63-0.5-2.2c-0.33-0.57-0.85-0.85-1.56-0.85
		s-1.23,0.29-1.56,0.85c-0.33,0.57-0.49,1.3-0.49,2.2V422.77z"/>
	<path class="st2" d="M454.48,426.1l1.31-0.28v-6.29l-1.45-0.28v-1.65h4l0.12,1.45c0.34-0.52,0.75-0.92,1.25-1.21
		c0.49-0.29,1.05-0.43,1.66-0.43c1.02,0,1.82,0.32,2.4,0.97c0.57,0.64,0.86,1.65,0.86,3.03v4.41l1.31,0.28v1.64h-5.23v-1.64
		l1.17-0.28v-4.4c0-0.68-0.14-1.16-0.41-1.45c-0.27-0.29-0.69-0.43-1.25-0.43c-0.36,0-0.69,0.07-0.97,0.22
		c-0.29,0.15-0.53,0.35-0.72,0.62v5.43l1.11,0.28v1.64h-5.15V426.1z"/>
	<path class="st2" d="M470.85,415.11v2.48h1.78v1.92h-1.78v5.16c0,0.39,0.08,0.67,0.24,0.84c0.16,0.17,0.38,0.25,0.66,0.25
		c0.19,0,0.35-0.01,0.49-0.02c0.14-0.02,0.3-0.04,0.47-0.08l0.23,1.98c-0.31,0.09-0.61,0.16-0.91,0.21
		c-0.3,0.05-0.63,0.07-0.97,0.07c-0.94,0-1.67-0.26-2.18-0.78c-0.51-0.52-0.76-1.34-0.76-2.46v-5.17h-1.49v-1.92h1.49v-2.48H470.85z
		"/>
	<path class="st2" d="M478.82,427.93c-1.46,0-2.63-0.47-3.5-1.41s-1.31-2.13-1.31-3.57v-0.37c0-1.5,0.41-2.75,1.24-3.72
		c0.83-0.97,1.94-1.46,3.33-1.45c1.37,0,2.43,0.41,3.19,1.24c0.76,0.82,1.13,1.94,1.13,3.34v1.49h-6.05l-0.02,0.06
		c0.05,0.67,0.27,1.22,0.67,1.65c0.4,0.43,0.94,0.65,1.62,0.65c0.61,0,1.11-0.06,1.51-0.18s0.84-0.31,1.31-0.58l0.74,1.69
		c-0.42,0.33-0.96,0.61-1.62,0.83C480.38,427.82,479.64,427.93,478.82,427.93z M478.58,419.52c-0.51,0-0.91,0.19-1.2,0.58
		c-0.29,0.39-0.48,0.9-0.54,1.53l0.03,0.05h3.35v-0.24c0-0.58-0.14-1.04-0.41-1.39C479.54,419.69,479.13,419.52,478.58,419.52z"/>
	<path class="st2" d="M484.04,426.1l1.31-0.28v-6.29l-1.45-0.28v-1.65h4l0.12,1.45c0.34-0.52,0.75-0.92,1.25-1.21
		c0.49-0.29,1.05-0.43,1.66-0.43c1.02,0,1.82,0.32,2.4,0.97c0.57,0.64,0.86,1.65,0.86,3.03v4.41l1.31,0.28v1.64h-5.23v-1.64
		l1.17-0.28v-4.4c0-0.68-0.14-1.16-0.41-1.45c-0.27-0.29-0.69-0.43-1.25-0.43c-0.36,0-0.69,0.07-0.97,0.22
		c-0.29,0.15-0.53,0.35-0.72,0.62v5.43l1.11,0.28v1.64h-5.15V426.1z"/>
	<path class="st2" d="M500.41,415.11v2.48h1.78v1.92h-1.78v5.16c0,0.39,0.08,0.67,0.24,0.84c0.16,0.17,0.38,0.25,0.66,0.25
		c0.19,0,0.35-0.01,0.49-0.02c0.14-0.02,0.3-0.04,0.47-0.08l0.23,1.98c-0.31,0.09-0.61,0.16-0.91,0.21
		c-0.3,0.05-0.63,0.07-0.97,0.07c-0.94,0-1.67-0.26-2.18-0.78c-0.51-0.52-0.76-1.34-0.76-2.46v-5.17h-1.49v-1.92h1.49v-2.48H500.41z
		"/>
	<path class="st2" d="M509.45,422.96h-5.28v-2.11h5.28V422.96z"/>
	<path class="st2" d="M517.62,427.74c-0.07-0.17-0.14-0.34-0.2-0.52c-0.06-0.18-0.1-0.36-0.13-0.54c-0.33,0.37-0.72,0.68-1.18,0.91
		c-0.47,0.23-1,0.35-1.6,0.35c-0.99,0-1.78-0.27-2.37-0.81c-0.58-0.54-0.88-1.28-0.88-2.21c0-0.95,0.38-1.68,1.14-2.2
		c0.76-0.52,1.88-0.78,3.35-0.78h1.4v-0.99c0-0.49-0.14-0.86-0.42-1.13c-0.28-0.27-0.7-0.4-1.25-0.4c-0.31,0-0.59,0.04-0.83,0.11
		c-0.24,0.07-0.44,0.16-0.59,0.26l-0.18,1.09h-2.06l0.01-2.25c0.5-0.34,1.07-0.62,1.72-0.85c0.65-0.23,1.35-0.35,2.11-0.35
		c1.26,0,2.28,0.31,3.06,0.92c0.78,0.61,1.18,1.49,1.18,2.63v4.19c0,0.16,0,0.3,0.01,0.44c0,0.14,0.01,0.27,0.03,0.39l0.83,0.11
		v1.64H517.62z M515.25,425.91c0.41,0,0.79-0.09,1.12-0.27s0.6-0.4,0.79-0.67v-1.55h-1.4c-0.58,0-1.02,0.14-1.32,0.41
		s-0.45,0.6-0.45,0.98c0,0.34,0.11,0.61,0.33,0.81C514.55,425.81,514.85,425.91,515.25,425.91z"/>
	<path class="st2" d="M521.91,426.1l1.31-0.28v-6.29l-1.45-0.28v-1.65h4l0.12,1.48c0.24-0.52,0.54-0.93,0.92-1.23
		c0.37-0.29,0.81-0.44,1.3-0.44c0.14,0,0.3,0.01,0.45,0.03c0.16,0.02,0.29,0.05,0.4,0.08l-0.29,2.49l-1.12-0.03
		c-0.4,0-0.73,0.08-0.99,0.23c-0.26,0.16-0.46,0.38-0.6,0.67v4.93l1.31,0.28v1.64h-5.36V426.1z"/>
	<path class="st2" d="M534.46,427.93c-1.46,0-2.63-0.47-3.5-1.41c-0.87-0.94-1.31-2.13-1.31-3.57v-0.37c0-1.5,0.41-2.75,1.24-3.72
		c0.83-0.97,1.94-1.46,3.33-1.45c1.37,0,2.43,0.41,3.19,1.24c0.76,0.82,1.13,1.94,1.13,3.34v1.49h-6.05l-0.02,0.06
		c0.05,0.67,0.27,1.22,0.67,1.65c0.4,0.43,0.94,0.65,1.62,0.65c0.61,0,1.11-0.06,1.51-0.18c0.4-0.12,0.84-0.31,1.31-0.58l0.74,1.69
		c-0.42,0.33-0.96,0.61-1.62,0.83C536.01,427.82,535.27,427.93,534.46,427.93z M534.21,419.52c-0.51,0-0.91,0.19-1.2,0.58
		c-0.29,0.39-0.48,0.9-0.54,1.53l0.03,0.05h3.35v-0.24c0-0.58-0.14-1.04-0.41-1.39C535.17,419.69,534.76,419.52,534.21,419.52z"/>
	<path class="st2" d="M546.28,427.74c-0.07-0.17-0.14-0.34-0.2-0.52s-0.1-0.36-0.13-0.54c-0.33,0.37-0.72,0.68-1.18,0.91
		c-0.47,0.23-1,0.35-1.6,0.35c-0.99,0-1.78-0.27-2.37-0.81c-0.58-0.54-0.88-1.28-0.88-2.21c0-0.95,0.38-1.68,1.14-2.2
		c0.76-0.52,1.88-0.78,3.35-0.78h1.4v-0.99c0-0.49-0.14-0.86-0.42-1.13c-0.28-0.27-0.7-0.4-1.25-0.4c-0.31,0-0.59,0.04-0.83,0.11
		c-0.24,0.07-0.44,0.16-0.59,0.26l-0.18,1.09h-2.06l0.01-2.25c0.5-0.34,1.07-0.62,1.72-0.85c0.65-0.23,1.35-0.35,2.11-0.35
		c1.26,0,2.28,0.31,3.06,0.92c0.78,0.61,1.18,1.49,1.18,2.63v4.19c0,0.16,0,0.3,0.01,0.44c0,0.14,0.01,0.27,0.03,0.39l0.83,0.11
		v1.64H546.28z M543.91,425.91c0.41,0,0.79-0.09,1.12-0.27s0.6-0.4,0.79-0.67v-1.55h-1.4c-0.58,0-1.02,0.14-1.32,0.41
		s-0.45,0.6-0.45,0.98c0,0.34,0.11,0.61,0.33,0.81C543.21,425.81,543.52,425.91,543.91,425.91z"/>
</g>
</svg>
