<?xml version="1.0" encoding="utf-8"?>
<!-- Generator: Adobe Illustrator 23.0.3, SVG Export Plug-In . SVG Version: 6.00 Build 0)  -->
<svg version="1.1" id="Layer_2" xmlns="http://www.w3.org/2000/svg" xmlns:xlink="http://www.w3.org/1999/xlink" x="0px" y="0px"
	 viewBox="0 0 612 792" style="enable-background:new 0 0 612 792;" xml:space="preserve">
<style type="text/css">
	.st0{fill:#58595B;stroke:#58595B;stroke-width:1.1148;stroke-miterlimit:10;}
	.st1{stroke:#000000;stroke-width:1.1148;stroke-miterlimit:10;}
	.st2{fill:#58595B;stroke:#58595B;stroke-width:0.8361;stroke-miterlimit:10;}
</style>
<polygon points="26.25,102.21 28.71,103.99 25.57,88.99 22.44,103.35 24.9,102.12 24.9,143.66 22.4,142.41 25.53,156.77 
	28.67,141.77 26.25,143.52 "/>
<polygon points="26.25,173.84 28.71,175.62 25.57,160.62 22.44,174.98 24.9,173.75 24.9,215.29 22.4,214.04 25.53,228.4 
	28.67,213.4 26.25,215.15 "/>
<polygon points="26.6,243.69 29.06,245.47 25.93,230.47 22.8,244.84 25.26,243.61 25.26,285.14 22.75,283.89 25.89,298.26 
	29.02,283.26 26.6,285.01 "/>
<g>
	<polygon class="st0" points="36.47,155.19 43.6,166.96 50.11,155.19 	"/>
	<polygon class="st0" points="36.31,178.96 43.43,167.19 49.94,178.96 	"/>
	<polygon class="st0" points="36.31,99.86 43.43,88.09 49.94,99.86 	"/>
	<line class="st1" x1="18.95" y1="88.16" x2="576.1" y2="88.16"/>
	<line class="st1" x1="19.19" y1="100.1" x2="576.34" y2="100.1"/>
	<line class="st1" x1="19.98" y1="155.02" x2="577.13" y2="155.02"/>
	<line class="st1" x1="19.19" y1="178.9" x2="576.34" y2="178.9"/>
	<line class="st1" x1="19.11" y1="234.61" x2="576.26" y2="234.61"/>
	<line class="st1" x1="19.19" y1="256.9" x2="576.34" y2="256.9"/>
	<line class="st1" x1="19.98" y1="312.61" x2="577.13" y2="312.61"/>
	<line class="st1" x1="19.98" y1="323.75" x2="577.13" y2="323.75"/>
	<line class="st2" x1="19.19" y1="166.96" x2="575.54" y2="166.96"/>
	<line class="st2" x1="19.19" y1="244.96" x2="575.54" y2="244.96"/>
	<polygon points="566.46,111.91 569.21,113.3 565.72,101.57 562.22,112.8 564.97,111.84 564.97,144.32 562.18,143.34 565.67,154.57 
		569.16,142.84 566.46,144.21 	"/>
	<polygon points="566.46,190.3 569.21,191.69 565.72,179.96 562.22,191.19 564.97,190.23 564.97,222.7 562.18,221.73 565.67,232.96 
		569.16,221.23 566.46,222.6 	"/>
	<polygon points="567.02,268.69 569.77,270.08 566.28,258.35 562.78,269.58 565.53,268.62 565.53,301.09 562.74,300.12 
		566.23,311.35 569.72,299.62 567.02,300.99 	"/>
	<line x1="27.82" y1="275.39" x2="78.52" y2="361.77"/>
	<line x1="565.51" y1="280.68" x2="500.15" y2="365.48"/>
	<g>
		<path d="M89.44,370.42h-2.32v-11.86h2.32V370.42z"/>
		<path d="M91.78,359.7c0-0.76,0.42-1.14,1.26-1.14s1.26,0.38,1.26,1.14c0,0.36-0.11,0.64-0.32,0.84c-0.21,0.2-0.53,0.3-0.95,0.3
			C92.2,360.84,91.78,360.46,91.78,359.7z M94.2,370.42h-2.32v-8.52h2.32V370.42z"/>
		<path d="M104.5,370.42h-2.32v-4.98c0-0.61-0.11-1.08-0.33-1.38c-0.22-0.31-0.57-0.46-1.04-0.46c-0.65,0-1.12,0.22-1.41,0.65
			c-0.29,0.43-0.43,1.15-0.43,2.16v4.01h-2.32v-8.52h1.78l0.31,1.09h0.13c0.26-0.41,0.62-0.72,1.07-0.93
			c0.45-0.21,0.97-0.32,1.55-0.32c0.99,0,1.74,0.27,2.26,0.8s0.77,1.31,0.77,2.32V370.42z"/>
		<path d="M110.75,370.58c-1.37,0-2.44-0.38-3.22-1.14c-0.77-0.76-1.16-1.83-1.16-3.22c0-1.43,0.36-2.53,1.07-3.31
			c0.71-0.78,1.7-1.17,2.96-1.17c1.2,0,2.14,0.34,2.81,1.03c0.67,0.69,1.01,1.63,1.01,2.84v1.13h-5.49
			c0.03,0.66,0.22,1.18,0.59,1.55c0.37,0.37,0.88,0.56,1.54,0.56c0.51,0,1-0.05,1.46-0.16s0.93-0.28,1.43-0.51v1.8
			c-0.41,0.2-0.84,0.35-1.3,0.45S111.42,370.58,110.75,370.58z M110.43,363.4c-0.49,0-0.88,0.16-1.16,0.47
			c-0.28,0.31-0.44,0.76-0.48,1.33h3.26c-0.01-0.57-0.16-1.02-0.45-1.33C111.31,363.55,110.92,363.4,110.43,363.4z"/>
		<path d="M115.36,367.19v-1.91h4.09v1.91H115.36z"/>
		<path d="M129,370.42h-2.32v-4.98c0-1.23-0.46-1.84-1.37-1.84c-0.65,0-1.12,0.22-1.41,0.66c-0.29,0.44-0.43,1.16-0.43,2.15v4.01
			h-2.32v-11.86h2.32v2.42c0,0.19-0.02,0.63-0.05,1.33l-0.05,0.69h0.12c0.52-0.83,1.34-1.25,2.47-1.25c1,0,1.76,0.27,2.28,0.81
			c0.52,0.54,0.78,1.31,0.78,2.32V370.42z"/>
		<path d="M135.25,370.58c-1.37,0-2.44-0.38-3.22-1.14s-1.16-1.83-1.16-3.22c0-1.43,0.36-2.53,1.07-3.31
			c0.71-0.78,1.7-1.17,2.96-1.17c1.2,0,2.14,0.34,2.81,1.03c0.67,0.69,1.01,1.63,1.01,2.84v1.13h-5.49
			c0.03,0.66,0.22,1.18,0.59,1.55c0.37,0.37,0.88,0.56,1.54,0.56c0.51,0,1-0.05,1.46-0.16c0.46-0.11,0.93-0.28,1.43-0.51v1.8
			c-0.41,0.2-0.84,0.35-1.3,0.45S135.92,370.58,135.25,370.58z M134.93,363.4c-0.49,0-0.88,0.16-1.16,0.47s-0.44,0.76-0.48,1.33
			h3.26c-0.01-0.57-0.16-1.02-0.45-1.33C135.81,363.55,135.42,363.4,134.93,363.4z"/>
		<path d="M140.52,359.7c0-0.76,0.42-1.14,1.26-1.14c0.84,0,1.26,0.38,1.26,1.14c0,0.36-0.11,0.64-0.32,0.84
			c-0.21,0.2-0.53,0.3-0.95,0.3C140.94,360.84,140.52,360.46,140.52,359.7z M142.94,370.42h-2.32v-8.52h2.32V370.42z"/>
		<path d="M152.79,361.9v1.18l-1.33,0.34c0.24,0.38,0.37,0.81,0.37,1.28c0,0.91-0.32,1.63-0.96,2.14c-0.64,0.51-1.52,0.77-2.66,0.77
			l-0.42-0.02l-0.34-0.04c-0.24,0.18-0.36,0.39-0.36,0.61c0,0.34,0.43,0.5,1.28,0.5h1.45c0.93,0,1.65,0.2,2.14,0.6
			c0.49,0.4,0.74,0.99,0.74,1.77c0,1-0.42,1.77-1.25,2.32s-2.02,0.82-3.58,0.82c-1.19,0-2.1-0.21-2.72-0.62
			c-0.63-0.41-0.94-0.99-0.94-1.74c0-0.51,0.16-0.94,0.48-1.29c0.32-0.35,0.79-0.59,1.41-0.74c-0.24-0.1-0.45-0.27-0.62-0.5
			s-0.27-0.48-0.27-0.74c0-0.32,0.09-0.6,0.28-0.81s0.46-0.43,0.82-0.64c-0.45-0.19-0.8-0.5-1.06-0.93
			c-0.26-0.43-0.39-0.93-0.39-1.51c0-0.93,0.3-1.65,0.91-2.16c0.6-0.51,1.47-0.76,2.59-0.76c0.24,0,0.52,0.02,0.85,0.06
			s0.54,0.08,0.63,0.1H152.79z M146.22,371.63c0,0.32,0.15,0.57,0.46,0.75c0.31,0.18,0.74,0.27,1.29,0.27
			c0.83,0,1.49-0.11,1.96-0.34c0.47-0.23,0.71-0.54,0.71-0.94c0-0.32-0.14-0.54-0.42-0.66s-0.71-0.18-1.3-0.18h-1.2
			c-0.43,0-0.78,0.1-1.07,0.3C146.36,371.03,146.22,371.3,146.22,371.63z M147.06,364.69c0,0.46,0.11,0.83,0.32,1.1
			c0.21,0.27,0.53,0.4,0.96,0.4c0.44,0,0.76-0.13,0.96-0.4s0.3-0.64,0.3-1.1c0-1.03-0.42-1.54-1.26-1.54
			C147.49,363.15,147.06,363.67,147.06,364.69z"/>
		<path d="M162.06,370.42h-2.32v-4.98c0-1.23-0.46-1.84-1.37-1.84c-0.65,0-1.12,0.22-1.41,0.66c-0.29,0.44-0.43,1.16-0.43,2.15v4.01
			h-2.32v-11.86h2.32v2.42c0,0.19-0.02,0.63-0.05,1.33l-0.05,0.69h0.12c0.52-0.83,1.34-1.25,2.47-1.25c1,0,1.76,0.27,2.28,0.81
			s0.78,1.31,0.78,2.32V370.42z"/>
		<path d="M168.04,368.72c0.41,0,0.89-0.09,1.46-0.27v1.73c-0.58,0.26-1.29,0.39-2.13,0.39c-0.93,0-1.61-0.24-2.03-0.7
			c-0.42-0.47-0.64-1.17-0.64-2.11v-4.11h-1.11v-0.98l1.28-0.78l0.67-1.8h1.49v1.81h2.39v1.75h-2.39v4.11
			c0,0.33,0.09,0.57,0.28,0.73C167.49,368.65,167.74,368.72,168.04,368.72z"/>
	</g>
	<g>
		<path d="M55.05,171.73h-2.32v-11.86h2.32V171.73z"/>
		<path d="M61.34,171.88c-1.37,0-2.44-0.38-3.22-1.14c-0.77-0.76-1.16-1.83-1.16-3.22c0-1.43,0.36-2.53,1.07-3.31
			c0.71-0.78,1.7-1.17,2.96-1.17c1.2,0,2.14,0.34,2.81,1.03c0.67,0.69,1.01,1.63,1.01,2.84v1.13h-5.49
			c0.03,0.66,0.22,1.18,0.59,1.55c0.37,0.37,0.88,0.56,1.54,0.56c0.51,0,1-0.05,1.46-0.16c0.46-0.11,0.93-0.28,1.43-0.51v1.8
			c-0.41,0.2-0.84,0.35-1.3,0.45C62.57,171.83,62.01,171.88,61.34,171.88z M61.01,164.7c-0.49,0-0.88,0.16-1.16,0.47
			c-0.28,0.31-0.44,0.76-0.48,1.33h3.26c-0.01-0.57-0.16-1.02-0.45-1.33S61.5,164.7,61.01,164.7z"/>
		<path d="M72.12,171.73l-0.45-1.16H71.6c-0.39,0.49-0.79,0.83-1.21,1.02c-0.41,0.19-0.95,0.29-1.62,0.29
			c-0.82,0-1.46-0.23-1.93-0.7c-0.47-0.47-0.7-1.13-0.7-2c0-0.9,0.32-1.57,0.95-2c0.63-0.43,1.59-0.67,2.86-0.71l1.48-0.05v-0.37
			c0-0.86-0.44-1.3-1.33-1.3c-0.68,0-1.48,0.21-2.4,0.62l-0.77-1.57c0.98-0.51,2.07-0.77,3.26-0.77c1.14,0,2.02,0.25,2.63,0.75
			c0.61,0.5,0.91,1.25,0.91,2.27v5.68H72.12z M71.43,167.78l-0.9,0.03c-0.68,0.02-1.18,0.14-1.51,0.37c-0.33,0.22-0.5,0.56-0.5,1.02
			c0,0.66,0.38,0.98,1.13,0.98c0.54,0,0.97-0.16,1.29-0.46c0.32-0.31,0.48-0.72,0.48-1.23V167.78z"/>
		<path d="M78.83,171.88c-1,0-1.79-0.39-2.36-1.17s-0.86-1.85-0.86-3.23c0-1.4,0.29-2.49,0.87-3.27c0.58-0.78,1.38-1.17,2.4-1.17
			c1.07,0,1.89,0.42,2.45,1.25h0.08c-0.12-0.64-0.18-1.2-0.18-1.7v-2.73h2.33v11.86h-1.78l-0.45-1.1h-0.1
			C80.72,171.46,79.91,171.88,78.83,171.88z M79.64,170.03c0.59,0,1.03-0.17,1.31-0.52c0.28-0.35,0.43-0.93,0.45-1.76v-0.25
			c0-0.91-0.14-1.57-0.42-1.97c-0.28-0.4-0.74-0.59-1.37-0.59c-0.52,0-0.92,0.22-1.21,0.66c-0.29,0.44-0.43,1.08-0.43,1.92
			s0.14,1.47,0.43,1.89C78.69,169.82,79.11,170.03,79.64,170.03z"/>
		<path d="M85.91,161.01c0-0.76,0.42-1.14,1.26-1.14c0.84,0,1.26,0.38,1.26,1.14c0,0.36-0.11,0.64-0.32,0.84
			c-0.21,0.2-0.53,0.3-0.95,0.3C86.33,162.15,85.91,161.77,85.91,161.01z M88.33,171.73h-2.32v-8.52h2.32V171.73z"/>
		<path d="M98.63,171.73h-2.32v-4.98c0-0.61-0.11-1.08-0.33-1.38c-0.22-0.31-0.57-0.46-1.04-0.46c-0.65,0-1.12,0.22-1.41,0.65
			c-0.29,0.43-0.43,1.15-0.43,2.16v4.01h-2.32v-8.52h1.78l0.31,1.09h0.13c0.26-0.41,0.62-0.72,1.07-0.93
			c0.46-0.21,0.97-0.32,1.55-0.32c0.99,0,1.74,0.27,2.26,0.8c0.51,0.54,0.77,1.31,0.77,2.32V171.73z"/>
		<path d="M108.44,163.21v1.18l-1.33,0.34c0.24,0.38,0.37,0.81,0.37,1.28c0,0.91-0.32,1.63-0.96,2.14
			c-0.64,0.51-1.52,0.77-2.66,0.77l-0.42-0.02l-0.34-0.04c-0.24,0.18-0.36,0.39-0.36,0.61c0,0.34,0.43,0.5,1.28,0.5h1.45
			c0.93,0,1.65,0.2,2.14,0.6c0.49,0.4,0.74,0.99,0.74,1.77c0,1-0.42,1.77-1.25,2.32c-0.83,0.55-2.02,0.82-3.58,0.82
			c-1.19,0-2.1-0.21-2.72-0.62c-0.63-0.41-0.94-0.99-0.94-1.74c0-0.51,0.16-0.94,0.48-1.29s0.79-0.59,1.41-0.74
			c-0.24-0.1-0.45-0.27-0.62-0.5c-0.18-0.23-0.27-0.48-0.27-0.74c0-0.32,0.09-0.6,0.28-0.81c0.19-0.22,0.46-0.43,0.82-0.64
			c-0.45-0.19-0.8-0.5-1.06-0.93c-0.26-0.43-0.39-0.93-0.39-1.51c0-0.93,0.3-1.65,0.91-2.16c0.6-0.51,1.47-0.76,2.59-0.76
			c0.24,0,0.52,0.02,0.85,0.06s0.54,0.08,0.63,0.1H108.44z M101.87,172.93c0,0.32,0.15,0.57,0.46,0.75
			c0.31,0.18,0.74,0.27,1.29,0.27c0.83,0,1.49-0.11,1.96-0.34c0.47-0.23,0.71-0.54,0.71-0.94c0-0.32-0.14-0.54-0.42-0.66
			c-0.28-0.12-0.71-0.18-1.3-0.18h-1.2c-0.43,0-0.78,0.1-1.07,0.3C102.01,172.34,101.87,172.6,101.87,172.93z M102.71,166
			c0,0.46,0.11,0.83,0.32,1.1c0.21,0.27,0.53,0.4,0.96,0.4c0.44,0,0.76-0.13,0.96-0.4c0.2-0.27,0.3-0.64,0.3-1.1
			c0-1.03-0.42-1.54-1.26-1.54C103.14,164.46,102.71,164.97,102.71,166z"/>
	</g>
	<g>
		<path d="M430.72,362.93h-2.01v6.77h-2.32v-6.77h-1.28v-1.12l1.28-0.62v-0.62c0-0.97,0.24-1.68,0.72-2.13
			c0.48-0.45,1.24-0.67,2.29-0.67c0.8,0,1.52,0.12,2.14,0.36l-0.59,1.71c-0.47-0.15-0.9-0.22-1.3-0.22c-0.33,0-0.57,0.1-0.72,0.29
			s-0.22,0.45-0.22,0.75v0.53h2.01V362.93z"/>
		<path d="M439.8,365.43c0,1.39-0.37,2.47-1.1,3.25c-0.73,0.78-1.75,1.17-3.06,1.17c-0.82,0-1.54-0.18-2.16-0.54
			c-0.62-0.36-1.1-0.87-1.44-1.54c-0.34-0.67-0.5-1.45-0.5-2.35c0-1.39,0.36-2.47,1.09-3.25c0.73-0.77,1.75-1.16,3.06-1.16
			c0.82,0,1.54,0.18,2.16,0.53s1.1,0.87,1.44,1.53C439.63,363.75,439.8,364.53,439.8,365.43z M433.91,365.43
			c0,0.84,0.14,1.48,0.41,1.91c0.28,0.43,0.73,0.65,1.35,0.65c0.62,0,1.07-0.21,1.34-0.64c0.27-0.43,0.41-1.07,0.41-1.92
			c0-0.84-0.14-1.48-0.41-1.9c-0.27-0.42-0.72-0.63-1.35-0.63c-0.62,0-1.07,0.21-1.34,0.63
			C434.05,363.94,433.91,364.58,433.91,365.43z"/>
		<path d="M449.59,369.7h-2.32v-4.98c0-0.61-0.11-1.08-0.33-1.38c-0.22-0.31-0.57-0.46-1.04-0.46c-0.65,0-1.12,0.22-1.41,0.65
			c-0.29,0.43-0.43,1.15-0.43,2.16v4.01h-2.32v-8.52h1.78l0.31,1.09h0.13c0.26-0.41,0.62-0.72,1.07-0.93
			c0.46-0.21,0.97-0.32,1.55-0.32c0.99,0,1.74,0.27,2.26,0.8c0.51,0.54,0.77,1.31,0.77,2.32V369.7z"/>
		<path d="M455.57,368c0.41,0,0.89-0.09,1.46-0.27v1.73c-0.58,0.26-1.29,0.39-2.13,0.39c-0.93,0-1.61-0.24-2.03-0.7
			c-0.42-0.47-0.64-1.17-0.64-2.11v-4.11h-1.11v-0.98l1.28-0.78l0.67-1.8h1.49v1.81h2.39v1.75h-2.39v4.11
			c0,0.33,0.09,0.57,0.28,0.73C455.02,367.92,455.26,368,455.57,368z"/>
		<path d="M458,366.47v-1.91h4.09v1.91H458z"/>
		<path d="M469.72,367.17c0,0.87-0.3,1.54-0.91,2c-0.61,0.46-1.52,0.69-2.72,0.69c-0.62,0-1.15-0.04-1.59-0.13
			c-0.44-0.08-0.85-0.21-1.23-0.37v-1.92c0.43,0.2,0.92,0.37,1.46,0.51c0.54,0.14,1.02,0.21,1.43,0.21c0.84,0,1.27-0.24,1.27-0.73
			c0-0.18-0.06-0.33-0.17-0.45c-0.11-0.11-0.3-0.24-0.58-0.39c-0.27-0.14-0.64-0.31-1.1-0.51c-0.66-0.27-1.14-0.53-1.44-0.76
			c-0.31-0.23-0.53-0.5-0.67-0.8c-0.14-0.3-0.21-0.67-0.21-1.12c0-0.76,0.29-1.34,0.88-1.76c0.59-0.41,1.42-0.62,2.5-0.62
			c1.03,0,2.02,0.22,2.99,0.67l-0.7,1.68c-0.43-0.18-0.83-0.33-1.2-0.45s-0.75-0.18-1.14-0.18c-0.69,0-1.03,0.19-1.03,0.56
			c0,0.21,0.11,0.39,0.33,0.54c0.22,0.15,0.7,0.38,1.45,0.68c0.67,0.27,1.15,0.52,1.46,0.75c0.31,0.23,0.54,0.5,0.69,0.81
			C469.64,366.39,469.72,366.75,469.72,367.17z"/>
		<path d="M471.43,358.98c0-0.76,0.42-1.14,1.26-1.14s1.26,0.38,1.26,1.14c0,0.36-0.11,0.64-0.32,0.84c-0.21,0.2-0.53,0.3-0.95,0.3
			C471.85,360.12,471.43,359.74,471.43,358.98z M473.86,369.7h-2.32v-8.52h2.32V369.7z"/>
		<path d="M482.22,369.7h-6.73v-1.37l3.95-5.37h-3.71v-1.78h6.36v1.51l-3.84,5.24h3.98V369.7z"/>
		<path d="M487.76,369.85c-1.37,0-2.44-0.38-3.22-1.14c-0.77-0.76-1.16-1.83-1.16-3.22c0-1.43,0.36-2.53,1.07-3.31
			c0.71-0.78,1.7-1.17,2.96-1.17c1.2,0,2.14,0.34,2.81,1.03c0.67,0.69,1.01,1.63,1.01,2.84v1.13h-5.49
			c0.03,0.66,0.22,1.18,0.59,1.55c0.37,0.37,0.88,0.56,1.54,0.56c0.51,0,1-0.05,1.46-0.16c0.46-0.11,0.94-0.28,1.43-0.51v1.8
			c-0.41,0.2-0.84,0.35-1.3,0.45C488.99,369.8,488.43,369.85,487.76,369.85z M487.44,362.68c-0.49,0-0.88,0.16-1.16,0.47
			s-0.44,0.76-0.48,1.33h3.26c-0.01-0.57-0.16-1.02-0.45-1.33S487.93,362.68,487.44,362.68z"/>
	</g>
	<g>
		<path d="M89.86,111.01c3.5-3.35,7.8-5.02,12.91-5.02c5.13,0,9.44,1.68,12.94,5.05c3.79,3.65,5.69,8.5,5.69,14.57
			c0,6.16-1.96,11.07-5.89,14.71c-3.52,3.26-7.76,4.89-12.74,4.89c-5.33,0-9.75-1.8-13.27-5.41c-3.57-3.68-5.36-8.41-5.36-14.19
			C84.14,119.55,86.05,114.68,89.86,111.01z M94.11,138.87c2.35,2.86,5.24,4.29,8.67,4.29c3.35,0,6.22-1.39,8.6-4.18
			c2.38-2.79,3.57-7.24,3.57-13.37c0-6.2-1.2-10.68-3.61-13.44c-2.41-2.76-5.26-4.14-8.56-4.14c-3.41,0-6.3,1.43-8.66,4.29
			c-2.36,2.86-3.54,7.29-3.54,13.28C90.58,131.59,91.76,136.01,94.11,138.87z"/>
		<path d="M124.53,143.63c1.31-0.17,2.23-0.5,2.76-0.99c0.53-0.49,0.79-1.59,0.79-3.29v-14.1c0-1.17-0.11-2-0.33-2.48
			c-0.35-0.7-1.07-1.05-2.17-1.05c-0.17,0-0.34,0.01-0.51,0.03c-0.18,0.02-0.39,0.05-0.65,0.08v-0.97c0.76-0.22,2.55-0.8,5.39-1.72
			l2.61-0.86c0.13,0,0.21,0.05,0.24,0.14c0.03,0.09,0.04,0.22,0.04,0.39v4.08c1.7-1.59,3.03-2.68,3.99-3.28
			c1.44-0.91,2.94-1.36,4.49-1.36c1.26,0,2.4,0.36,3.44,1.08c1.99,1.41,2.99,3.91,2.99,7.52v12.96c0,1.33,0.27,2.3,0.8,2.89
			c0.53,0.59,1.42,0.9,2.67,0.92v0.78h-11.85v-0.78c1.35-0.19,2.29-0.56,2.83-1.12c0.54-0.56,0.81-1.79,0.81-3.68v-11.85
			c0-1.59-0.29-2.91-0.88-3.96c-0.59-1.05-1.67-1.57-3.26-1.57c-1.09,0-2.19,0.37-3.31,1.11c-0.63,0.43-1.44,1.13-2.43,2.11v15.55
			c0,1.33,0.3,2.23,0.89,2.68c0.59,0.45,1.53,0.7,2.8,0.74v0.78h-12.13V143.63z"/>
		<path d="M171.81,121.08c1.96,1.8,2.94,4.36,2.94,7.68h-17.63c0.18,4.28,1.16,7.4,2.91,9.36c1.76,1.96,3.84,2.93,6.25,2.93
			c1.94,0,3.58-0.51,4.91-1.52c1.33-1.02,2.56-2.46,3.69-4.32l0.97,0.33c-0.76,2.35-2.18,4.53-4.26,6.53c-2.08,2-4.63,3-7.65,3
			c-3.48,0-6.17-1.31-8.06-3.94c-1.9-2.63-2.85-5.65-2.85-9.08c0-3.72,1.1-6.93,3.3-9.63c2.2-2.7,5.07-4.05,8.61-4.05
			C167.56,118.37,169.85,119.27,171.81,121.08z M158.51,123.2c-0.59,1-1.02,2.26-1.28,3.78h11.71c-0.2-1.85-0.56-3.23-1.05-4.14
			c-0.91-1.63-2.42-2.44-4.55-2.44C161.23,120.4,159.62,121.33,158.51,123.2z"/>
		<path d="M192.55,143.63c1.72-0.17,2.89-0.51,3.5-1.04c0.61-0.53,0.92-1.56,0.92-3.1v-27.12c0-1.22-0.1-2.06-0.31-2.53
			c-0.37-0.78-1.12-1.17-2.25-1.17c-0.26,0-0.54,0.03-0.85,0.08c-0.31,0.06-0.69,0.14-1.15,0.25v-0.92c2.5-0.67,5.51-1.55,9.02-2.66
			c0.13,0,0.21,0.06,0.24,0.17c0.03,0.11,0.04,0.35,0.04,0.72v33.28c0,1.61,0.28,2.65,0.83,3.12c0.56,0.47,1.7,0.77,3.44,0.9v0.78
			h-13.44V143.63z"/>
		<path d="M208.29,143.63c1.98-0.19,3.23-0.52,3.75-1.01c0.52-0.49,0.78-1.82,0.78-3.98v-13.24c0-1.2-0.08-2.04-0.25-2.5
			c-0.28-0.76-0.86-1.14-1.75-1.14c-0.2,0-0.4,0.02-0.6,0.06c-0.19,0.04-0.75,0.19-1.68,0.44v-0.86l1.19-0.39
			c3.24-1.05,5.5-1.85,6.77-2.39c0.52-0.22,0.85-0.33,1-0.33c0.04,0.13,0.06,0.27,0.06,0.42v19.93c0,2.11,0.25,3.43,0.76,3.97
			c0.51,0.54,1.66,0.88,3.46,1.03v0.78h-13.49V143.63z M212.7,106.51c0.56-0.57,1.24-0.86,2.05-0.86c0.8,0,1.48,0.28,2.04,0.84
			c0.56,0.56,0.85,1.25,0.85,2.06c0,0.79-0.28,1.47-0.85,2.03c-0.57,0.56-1.25,0.84-2.04,0.84c-0.81,0-1.5-0.28-2.05-0.84
			c-0.56-0.56-0.83-1.24-0.83-2.03C211.87,107.77,212.15,107.08,212.7,106.51z"/>
		<path d="M224,143.63c1.31-0.17,2.23-0.5,2.76-0.99c0.53-0.49,0.79-1.59,0.79-3.29v-14.1c0-1.17-0.11-2-0.33-2.48
			c-0.35-0.7-1.07-1.05-2.17-1.05c-0.17,0-0.34,0.01-0.51,0.03c-0.18,0.02-0.39,0.05-0.65,0.08v-0.97c0.76-0.22,2.55-0.8,5.39-1.72
			l2.61-0.86c0.13,0,0.21,0.05,0.24,0.14c0.03,0.09,0.04,0.22,0.04,0.39v4.08c1.7-1.59,3.03-2.68,3.99-3.28
			c1.44-0.91,2.94-1.36,4.49-1.36c1.26,0,2.4,0.36,3.44,1.08c1.99,1.41,2.99,3.91,2.99,7.52v12.96c0,1.33,0.27,2.3,0.8,2.89
			c0.53,0.59,1.42,0.9,2.67,0.92v0.78h-11.85v-0.78c1.35-0.19,2.29-0.56,2.83-1.12c0.54-0.56,0.81-1.79,0.81-3.68v-11.85
			c0-1.59-0.29-2.91-0.88-3.96c-0.59-1.05-1.67-1.57-3.26-1.57c-1.09,0-2.19,0.37-3.31,1.11c-0.63,0.43-1.44,1.13-2.43,2.11v15.55
			c0,1.33,0.3,2.23,0.89,2.68c0.59,0.45,1.53,0.7,2.8,0.74v0.78H224V143.63z"/>
		<path d="M271.27,121.08c1.96,1.8,2.94,4.36,2.94,7.68h-17.63c0.18,4.28,1.16,7.4,2.91,9.36c1.76,1.96,3.84,2.93,6.25,2.93
			c1.94,0,3.58-0.51,4.91-1.52c1.33-1.02,2.56-2.46,3.69-4.32l0.97,0.33c-0.76,2.35-2.18,4.53-4.26,6.53c-2.08,2-4.63,3-7.65,3
			c-3.48,0-6.17-1.31-8.06-3.94c-1.9-2.63-2.85-5.65-2.85-9.08c0-3.72,1.1-6.93,3.3-9.63c2.2-2.7,5.07-4.05,8.61-4.05
			C267.03,118.37,269.31,119.27,271.27,121.08z M257.98,123.2c-0.59,1-1.02,2.26-1.28,3.78h11.71c-0.2-1.85-0.56-3.23-1.05-4.14
			c-0.91-1.63-2.42-2.44-4.55-2.44C260.7,120.4,259.09,121.33,257.98,123.2z"/>
		<path d="M295.8,122.19c2.34-2.54,5.35-3.82,9.04-3.82c3.66,0,6.7,1.2,9.11,3.61c2.41,2.41,3.61,5.61,3.61,9.61
			c0,3.68-1.17,6.88-3.5,9.61c-2.33,2.72-5.35,4.08-9.05,4.08c-3.55,0-6.56-1.3-9.02-3.91c-2.46-2.61-3.69-5.89-3.69-9.83
			C292.29,127.85,293.46,124.73,295.8,122.19z M300.23,121.48c-1.85,1.68-2.78,4.59-2.78,8.72c0,3.29,0.75,6.37,2.24,9.22
			s3.56,4.28,6.22,4.28c2.08,0,3.68-0.95,4.8-2.86c1.12-1.91,1.68-4.4,1.68-7.49c0-3.2-0.71-6.22-2.14-9.05
			c-1.43-2.83-3.5-4.25-6.2-4.25C302.58,120.04,301.31,120.52,300.23,121.48z"/>
		<path d="M320.38,143.63c1.96-0.09,3.25-0.46,3.87-1.1c0.62-0.64,0.93-1.98,0.93-4.04v-17.82h-4.75v-1.86h4.75
			c0-2.92,0.4-5.39,1.2-7.41c1.52-3.87,4.31-5.8,8.37-5.8c1.63,0,3.09,0.32,4.38,0.97c1.29,0.65,1.93,1.52,1.93,2.61
			c0,0.61-0.22,1.16-0.66,1.64c-0.44,0.48-0.98,0.72-1.6,0.72c-0.53,0-0.99-0.16-1.38-0.49s-0.85-0.89-1.38-1.71l-0.47-0.72
			c-0.26-0.39-0.56-0.72-0.91-0.99c-0.35-0.27-0.84-0.4-1.46-0.4c-1.4,0-2.35,0.69-2.85,2.08c-0.28,0.74-0.41,1.71-0.41,2.91v6.58
			h6.91v1.86h-6.91v17.82c0,2.09,0.28,3.43,0.85,4.01c0.56,0.58,2.04,0.96,4.43,1.12v0.78h-14.82V143.63z"/>
		<path d="M366.88,118.82v2h-5.66l-0.06,15.99c0,1.41,0.12,2.47,0.36,3.19c0.44,1.28,1.31,1.91,2.61,1.91
			c0.67,0,1.24-0.16,1.74-0.47c0.49-0.31,1.05-0.81,1.68-1.5l0.72,0.61l-0.61,0.83c-0.96,1.3-1.98,2.21-3.05,2.75
			s-2.11,0.8-3.11,0.8c-2.18,0-3.66-0.97-4.44-2.91c-0.43-1.05-0.64-2.52-0.64-4.39v-16.82h-3.03c-0.09-0.06-0.16-0.11-0.21-0.17
			s-0.07-0.13-0.07-0.22c0-0.18,0.04-0.33,0.12-0.43c0.08-0.1,0.35-0.34,0.79-0.71c1.28-1.05,2.2-1.91,2.76-2.57
			c0.57-0.66,1.89-2.39,3.98-5.21c0.24,0,0.38,0.02,0.43,0.06c0.05,0.04,0.07,0.18,0.07,0.42v6.83H366.88z"/>
		<path d="M388.09,121.08c1.96,1.8,2.94,4.36,2.94,7.68H373.4c0.19,4.28,1.16,7.4,2.92,9.36s3.84,2.93,6.25,2.93
			c1.94,0,3.58-0.51,4.91-1.52c1.33-1.02,2.56-2.46,3.69-4.32l0.97,0.33c-0.76,2.35-2.18,4.53-4.26,6.53c-2.08,2-4.63,3-7.65,3
			c-3.48,0-6.17-1.31-8.06-3.94c-1.9-2.63-2.85-5.65-2.85-9.08c0-3.72,1.1-6.93,3.3-9.63c2.2-2.7,5.07-4.05,8.61-4.05
			C383.84,118.37,386.13,119.27,388.09,121.08z M374.79,123.2c-0.59,1-1.02,2.26-1.28,3.78h11.72c-0.2-1.85-0.56-3.23-1.06-4.14
			c-0.91-1.63-2.42-2.44-4.55-2.44C377.51,120.4,375.9,121.33,374.79,123.2z"/>
		<path d="M406.61,118.9v0.78c-0.7,0.02-1.3,0.12-1.79,0.29c-0.49,0.18-0.74,0.54-0.74,1.1c0,0.35,0.49,1.34,1.47,2.97
			c0.53,0.84,1.2,1.87,2.01,3.09c1.07-1.48,1.87-2.64,2.4-3.48c0.91-1.37,1.36-2.26,1.36-2.66c0-0.48-0.19-0.81-0.58-0.97
			c-0.39-0.17-0.93-0.28-1.64-0.33v-0.78h8.94v0.78c-0.94,0.07-1.82,0.33-2.64,0.76c-0.81,0.43-1.47,1.01-1.97,1.73l-4.7,6.76
			l7.28,11.2c0.94,1.44,1.74,2.38,2.4,2.8c0.66,0.43,1.41,0.66,2.26,0.69v0.78h-11.47v-0.78l0.81-0.06
			c0.42-0.04,0.78-0.17,1.07-0.39c0.29-0.22,0.43-0.5,0.43-0.83c0-0.35-0.35-1.13-1.05-2.33c-0.33-0.6-0.82-1.42-1.48-2.45
			c-0.31-0.51-0.77-1.21-1.38-2.12c-0.61-0.9-1.13-1.67-1.54-2.31l-4.54,7.08c-0.54,0.83-0.87,1.39-1,1.67
			c-0.13,0.28-0.19,0.51-0.19,0.69c0,0.35,0.14,0.58,0.43,0.69c0.29,0.11,0.91,0.23,1.87,0.36v0.78h-8.22v-0.78
			c1-0.2,1.74-0.46,2.22-0.78c0.48-0.31,1.12-1.05,1.92-2.19l6.31-9.4l-5.17-8.08c-1.07-1.61-1.81-2.56-2.22-2.86
			c-0.41-0.3-1.3-0.51-2.66-0.64v-0.78H406.61z"/>
		<path d="M436.34,118.82v2h-5.66l-0.06,15.99c0,1.41,0.12,2.47,0.36,3.19c0.44,1.28,1.31,1.91,2.61,1.91
			c0.67,0,1.24-0.16,1.74-0.47c0.49-0.31,1.05-0.81,1.68-1.5l0.72,0.61l-0.61,0.83c-0.96,1.3-1.98,2.21-3.05,2.75
			s-2.11,0.8-3.11,0.8c-2.18,0-3.66-0.97-4.44-2.91c-0.43-1.05-0.64-2.52-0.64-4.39v-16.82h-3.03c-0.09-0.06-0.16-0.11-0.21-0.17
			s-0.07-0.13-0.07-0.22c0-0.18,0.04-0.33,0.12-0.43c0.08-0.1,0.35-0.34,0.79-0.71c1.28-1.05,2.2-1.91,2.76-2.57
			c0.57-0.66,1.89-2.39,3.98-5.21c0.24,0,0.38,0.02,0.43,0.06c0.05,0.04,0.07,0.18,0.07,0.42v6.83H436.34z"/>
	</g>
	<g>
		<path d="M80.91,221.72v-1.05c1.46-0.16,2.56-0.72,3.29-1.65c0.73-0.94,1.98-3.49,3.76-7.68l11.84-27.9h1.13l14.17,32.23
			c0.94,2.13,1.7,3.46,2.26,3.96c0.56,0.51,1.51,0.85,2.85,1.04v1.05h-14.46v-1.05c1.66-0.15,2.73-0.33,3.21-0.54
			c0.48-0.21,0.72-0.73,0.72-1.56c0-0.28-0.09-0.76-0.28-1.46c-0.19-0.7-0.44-1.44-0.78-2.21l-2.28-5.47H91.37
			c-1.48,3.72-2.36,5.99-2.65,6.81c-0.29,0.82-0.43,1.47-0.43,1.95c0,0.96,0.39,1.62,1.16,1.99c0.48,0.22,1.39,0.39,2.72,0.5v1.05
			H80.91z M105.39,207.12l-6.52-15.66l-6.54,15.66H105.39z"/>
		<path d="M122.16,220.95c1.31-0.17,2.23-0.5,2.76-0.99c0.53-0.49,0.79-1.59,0.79-3.29v-14.1c0-1.17-0.11-2-0.33-2.48
			c-0.35-0.7-1.07-1.05-2.17-1.05c-0.17,0-0.34,0.01-0.51,0.03c-0.18,0.02-0.39,0.05-0.65,0.08v-0.97c0.76-0.22,2.55-0.79,5.39-1.72
			l2.61-0.86c0.13,0,0.21,0.05,0.24,0.14c0.03,0.09,0.04,0.22,0.04,0.39v4.08c1.7-1.59,3.03-2.68,3.99-3.28
			c1.44-0.91,2.94-1.36,4.49-1.36c1.26,0,2.4,0.36,3.44,1.08c1.99,1.41,2.99,3.91,2.99,7.52v12.96c0,1.33,0.27,2.3,0.8,2.89
			c0.53,0.59,1.42,0.9,2.67,0.92v0.78h-11.85v-0.78c1.35-0.19,2.29-0.56,2.83-1.12c0.54-0.56,0.81-1.79,0.81-3.68v-11.85
			c0-1.59-0.29-2.91-0.88-3.96c-0.59-1.05-1.67-1.57-3.26-1.57c-1.09,0-2.19,0.37-3.31,1.11c-0.63,0.43-1.44,1.13-2.43,2.11v15.55
			c0,1.33,0.3,2.23,0.89,2.68c0.59,0.45,1.53,0.7,2.8,0.74v0.78h-12.13V220.95z"/>
		<path d="M154.51,199.5c2.34-2.54,5.35-3.82,9.04-3.82c3.66,0,6.7,1.2,9.11,3.61c2.41,2.41,3.61,5.61,3.61,9.61
			c0,3.68-1.17,6.88-3.5,9.61s-5.35,4.08-9.05,4.08c-3.55,0-6.56-1.3-9.02-3.91c-2.46-2.61-3.69-5.89-3.69-9.83
			C151,205.16,152.17,202.05,154.51,199.5z M158.94,198.79c-1.85,1.68-2.78,4.59-2.78,8.72c0,3.29,0.75,6.37,2.24,9.22
			c1.49,2.85,3.56,4.28,6.22,4.28c2.08,0,3.68-0.95,4.8-2.86c1.12-1.91,1.68-4.4,1.68-7.49c0-3.2-0.71-6.22-2.14-9.05
			c-1.43-2.83-3.5-4.25-6.2-4.25C161.29,197.35,160.02,197.83,158.94,198.79z"/>
		<path d="M192.44,196.13v2h-5.66l-0.06,15.99c0,1.41,0.12,2.47,0.36,3.19c0.44,1.28,1.31,1.91,2.61,1.91
			c0.67,0,1.24-0.16,1.74-0.47c0.49-0.31,1.05-0.81,1.68-1.5l0.72,0.61l-0.61,0.83c-0.96,1.3-1.98,2.21-3.05,2.75
			c-1.07,0.54-2.11,0.8-3.11,0.8c-2.18,0-3.66-0.97-4.44-2.91c-0.43-1.05-0.64-2.52-0.64-4.39v-16.82h-3.03
			c-0.09-0.06-0.16-0.11-0.21-0.17c-0.05-0.06-0.07-0.13-0.07-0.22c0-0.18,0.04-0.33,0.12-0.43c0.08-0.1,0.35-0.34,0.79-0.71
			c1.28-1.05,2.2-1.91,2.76-2.57c0.56-0.66,1.89-2.39,3.98-5.2c0.24,0,0.38,0.02,0.43,0.06c0.05,0.04,0.07,0.18,0.07,0.42v6.83
			H192.44z"/>
		<path d="M194.28,220.95c1.52-0.2,2.51-0.58,2.98-1.12c0.47-0.55,0.71-1.84,0.71-3.87V189.3c0-1.04-0.13-1.8-0.4-2.29
			c-0.27-0.49-0.92-0.73-1.96-0.73c-0.2,0-0.4,0.01-0.6,0.04c-0.19,0.03-0.41,0.06-0.65,0.1v-1c0.81-0.24,1.82-0.53,3.01-0.87
			c1.19-0.34,2.02-0.59,2.48-0.74l2.66-0.83l0.06,0.19v17.04c1.17-1.33,2.2-2.31,3.11-2.94c1.63-1.11,3.39-1.67,5.27-1.67
			c3,0,5.04,1.26,6.14,3.78c0.59,1.33,0.89,3.08,0.89,5.25v11.33c0,1.96,0.23,3.24,0.68,3.83c0.45,0.59,1.38,0.98,2.79,1.17v0.78
			h-12.02v-0.78c1.61-0.22,2.65-0.6,3.11-1.14c0.46-0.54,0.69-1.82,0.69-3.86v-11.24c0-1.8-0.3-3.25-0.9-4.36
			c-0.6-1.11-1.74-1.67-3.4-1.67c-1.44,0-2.84,0.52-4.19,1.55c-1.35,1.04-2.03,1.71-2.03,2.03v13.69c0,2.07,0.24,3.37,0.72,3.89
			c0.48,0.52,1.51,0.89,3.08,1.11v0.78h-12.24V220.95z"/>
		<path d="M242.08,198.39c1.96,1.8,2.94,4.36,2.94,7.68h-17.63c0.18,4.28,1.16,7.4,2.91,9.36c1.76,1.96,3.84,2.93,6.25,2.93
			c1.94,0,3.58-0.51,4.91-1.52c1.33-1.02,2.56-2.46,3.69-4.32l0.97,0.33c-0.76,2.35-2.18,4.53-4.26,6.53c-2.08,2-4.63,3-7.65,3
			c-3.48,0-6.17-1.31-8.06-3.94c-1.9-2.63-2.85-5.65-2.85-9.08c0-3.72,1.1-6.93,3.3-9.63c2.2-2.7,5.07-4.05,8.61-4.05
			C237.83,195.68,240.12,196.59,242.08,198.39z M228.78,200.51c-0.59,1-1.02,2.26-1.28,3.78h11.71c-0.2-1.85-0.56-3.23-1.05-4.14
			c-0.91-1.63-2.42-2.44-4.55-2.44C231.5,197.71,229.89,198.65,228.78,200.51z"/>
		<path d="M247.69,220.81c1.7-0.15,2.83-0.45,3.39-0.9c0.56-0.45,0.83-1.42,0.83-2.9v-12.52c0-1.83-0.17-3.14-0.51-3.93
			c-0.34-0.79-0.97-1.18-1.87-1.18c-0.19,0-0.43,0.02-0.74,0.07c-0.31,0.05-0.62,0.11-0.96,0.18v-0.92
			c1.05-0.37,2.13-0.75,3.24-1.14s1.87-0.67,2.3-0.83c0.92-0.35,1.87-0.75,2.85-1.19c0.13,0,0.21,0.05,0.24,0.14
			c0.03,0.09,0.04,0.29,0.04,0.58v4.55c1.19-1.65,2.33-2.93,3.44-3.86c1.1-0.93,2.25-1.39,3.44-1.39c0.95,0,1.72,0.28,2.31,0.85
			c0.59,0.57,0.89,1.27,0.89,2.12c0,0.76-0.23,1.4-0.68,1.91c-0.45,0.52-1.02,0.78-1.71,0.78c-0.7,0-1.41-0.32-2.12-0.97
			c-0.71-0.65-1.27-0.97-1.68-0.97c-0.65,0-1.44,0.52-2.39,1.57c-0.94,1.05-1.42,2.12-1.42,3.23v12.52c0,1.59,0.37,2.7,1.11,3.32
			c0.74,0.62,1.97,0.91,3.69,0.87v0.92h-13.69V220.81z"/>
		<path d="M281.75,220.95c1.72-0.17,2.89-0.51,3.5-1.04c0.61-0.53,0.92-1.56,0.92-3.1v-27.12c0-1.22-0.1-2.06-0.31-2.53
			c-0.37-0.78-1.12-1.17-2.25-1.17c-0.26,0-0.54,0.03-0.85,0.08c-0.31,0.06-0.69,0.14-1.15,0.25v-0.92c2.5-0.67,5.51-1.55,9.02-2.66
			c0.13,0,0.21,0.06,0.24,0.17c0.03,0.11,0.04,0.35,0.04,0.72v33.28c0,1.61,0.28,2.65,0.83,3.12c0.56,0.47,1.7,0.77,3.44,0.9v0.78
			h-13.44V220.95z"/>
		<path d="M297.49,220.95c1.98-0.19,3.23-0.52,3.75-1.01c0.52-0.49,0.78-1.82,0.78-3.98v-13.24c0-1.2-0.08-2.04-0.25-2.5
			c-0.28-0.76-0.86-1.14-1.75-1.14c-0.2,0-0.4,0.02-0.6,0.06c-0.19,0.04-0.75,0.19-1.68,0.44v-0.86l1.19-0.39
			c3.24-1.05,5.5-1.85,6.77-2.39c0.52-0.22,0.85-0.33,1-0.33c0.04,0.13,0.06,0.27,0.06,0.42v19.93c0,2.11,0.25,3.43,0.76,3.97
			c0.51,0.54,1.66,0.88,3.46,1.03v0.78h-13.49V220.95z M301.9,183.83c0.56-0.57,1.24-0.86,2.05-0.86c0.8,0,1.48,0.28,2.04,0.84
			c0.56,0.56,0.85,1.25,0.85,2.06c0,0.79-0.28,1.47-0.85,2.03c-0.57,0.56-1.25,0.84-2.04,0.84c-0.81,0-1.5-0.28-2.05-0.84
			c-0.56-0.56-0.83-1.24-0.83-2.03S301.35,184.4,301.9,183.83z"/>
		<path d="M313.2,220.95c1.31-0.17,2.23-0.5,2.76-0.99c0.53-0.49,0.79-1.59,0.79-3.29v-14.1c0-1.17-0.11-2-0.33-2.48
			c-0.35-0.7-1.07-1.05-2.17-1.05c-0.17,0-0.34,0.01-0.51,0.03c-0.18,0.02-0.39,0.05-0.65,0.08v-0.97c0.76-0.22,2.55-0.79,5.39-1.72
			l2.61-0.86c0.13,0,0.21,0.05,0.24,0.14c0.03,0.09,0.04,0.22,0.04,0.39v4.08c1.7-1.59,3.03-2.68,3.99-3.28
			c1.44-0.91,2.94-1.36,4.49-1.36c1.26,0,2.4,0.36,3.44,1.08c2,1.41,2.99,3.91,2.99,7.52v12.96c0,1.33,0.27,2.3,0.8,2.89
			c0.53,0.59,1.42,0.9,2.67,0.92v0.78h-11.85v-0.78c1.35-0.19,2.29-0.56,2.83-1.12c0.54-0.56,0.81-1.79,0.81-3.68v-11.85
			c0-1.59-0.29-2.91-0.88-3.96c-0.59-1.05-1.67-1.57-3.26-1.57c-1.09,0-2.19,0.37-3.31,1.11c-0.63,0.43-1.44,1.13-2.43,2.11v15.55
			c0,1.33,0.3,2.23,0.89,2.68c0.59,0.45,1.53,0.7,2.8,0.74v0.78H313.2V220.95z"/>
		<path d="M360.48,198.39c1.96,1.8,2.94,4.36,2.94,7.68h-17.63c0.19,4.28,1.16,7.4,2.92,9.36s3.84,2.93,6.25,2.93
			c1.94,0,3.58-0.51,4.91-1.52c1.33-1.02,2.56-2.46,3.69-4.32l0.97,0.33c-0.76,2.35-2.18,4.53-4.26,6.53c-2.08,2-4.63,3-7.65,3
			c-3.48,0-6.17-1.31-8.06-3.94c-1.9-2.63-2.85-5.65-2.85-9.08c0-3.72,1.1-6.93,3.3-9.63c2.2-2.7,5.07-4.05,8.61-4.05
			C356.23,195.68,358.52,196.59,360.48,198.39z M347.18,200.51c-0.59,1-1.02,2.26-1.28,3.78h11.72c-0.2-1.85-0.56-3.23-1.06-4.14
			c-0.91-1.63-2.42-2.44-4.55-2.44C349.9,197.71,348.29,198.65,347.18,200.51z"/>
		<path d="M385,199.5c2.34-2.54,5.35-3.82,9.04-3.82c3.66,0,6.7,1.2,9.11,3.61c2.41,2.41,3.61,5.61,3.61,9.61
			c0,3.68-1.17,6.88-3.5,9.61c-2.33,2.72-5.35,4.08-9.05,4.08c-3.55,0-6.56-1.3-9.02-3.91c-2.46-2.61-3.69-5.89-3.69-9.83
			C381.49,205.16,382.66,202.05,385,199.5z M389.44,198.79c-1.86,1.68-2.78,4.59-2.78,8.72c0,3.29,0.75,6.37,2.24,9.22
			s3.57,4.28,6.22,4.28c2.08,0,3.68-0.95,4.8-2.86c1.12-1.91,1.68-4.4,1.68-7.49c0-3.2-0.71-6.22-2.14-9.05
			c-1.43-2.83-3.5-4.25-6.2-4.25C391.78,197.35,390.51,197.83,389.44,198.79z"/>
		<path d="M409.59,220.95c1.96-0.09,3.25-0.46,3.87-1.1c0.62-0.64,0.93-1.98,0.93-4.04v-17.82h-4.75v-1.86h4.75
			c0-2.92,0.4-5.39,1.2-7.41c1.52-3.87,4.31-5.8,8.37-5.8c1.63,0,3.09,0.32,4.38,0.97c1.29,0.65,1.93,1.52,1.93,2.61
			c0,0.61-0.22,1.16-0.66,1.64c-0.44,0.48-0.98,0.72-1.6,0.72c-0.53,0-0.99-0.16-1.38-0.49c-0.39-0.32-0.85-0.89-1.38-1.71
			l-0.47-0.72c-0.26-0.39-0.56-0.72-0.91-0.99c-0.35-0.27-0.84-0.4-1.46-0.4c-1.4,0-2.35,0.69-2.84,2.08
			c-0.28,0.74-0.41,1.71-0.41,2.92v6.58h6.91v1.86h-6.91v17.82c0,2.09,0.28,3.43,0.85,4.01c0.56,0.58,2.04,0.96,4.43,1.12v0.78
			h-14.82V220.95z"/>
		<path d="M456.08,196.13v2h-5.66l-0.06,15.99c0,1.41,0.12,2.47,0.36,3.19c0.44,1.28,1.31,1.91,2.61,1.91
			c0.67,0,1.24-0.16,1.74-0.47c0.49-0.31,1.05-0.81,1.68-1.5l0.72,0.61l-0.61,0.83c-0.96,1.3-1.98,2.21-3.05,2.75
			s-2.11,0.8-3.11,0.8c-2.18,0-3.66-0.97-4.44-2.91c-0.43-1.05-0.64-2.52-0.64-4.39v-16.82h-3.03c-0.09-0.06-0.16-0.11-0.21-0.17
			s-0.07-0.13-0.07-0.22c0-0.18,0.04-0.33,0.12-0.43c0.08-0.1,0.35-0.34,0.79-0.71c1.28-1.05,2.2-1.91,2.76-2.57
			c0.57-0.66,1.89-2.39,3.98-5.2c0.24,0,0.38,0.02,0.43,0.06c0.05,0.04,0.07,0.18,0.07,0.42v6.83H456.08z"/>
		<path d="M477.29,198.39c1.96,1.8,2.94,4.36,2.94,7.68h-17.63c0.19,4.28,1.16,7.4,2.92,9.36s3.84,2.93,6.25,2.93
			c1.94,0,3.58-0.51,4.91-1.52c1.33-1.02,2.56-2.46,3.69-4.32l0.97,0.33c-0.76,2.35-2.18,4.53-4.26,6.53c-2.08,2-4.63,3-7.65,3
			c-3.48,0-6.17-1.31-8.06-3.94c-1.9-2.63-2.85-5.65-2.85-9.08c0-3.72,1.1-6.93,3.3-9.63c2.2-2.7,5.07-4.05,8.61-4.05
			C473.04,195.68,475.33,196.59,477.29,198.39z M464,200.51c-0.59,1-1.02,2.26-1.28,3.78h11.72c-0.2-1.85-0.56-3.23-1.06-4.14
			c-0.91-1.63-2.42-2.44-4.55-2.44C466.71,197.71,465.11,198.65,464,200.51z"/>
		<path d="M495.81,196.21v0.78c-0.7,0.02-1.3,0.12-1.79,0.29c-0.49,0.18-0.74,0.54-0.74,1.1c0,0.35,0.49,1.34,1.47,2.97
			c0.53,0.84,1.2,1.87,2.01,3.09c1.07-1.48,1.87-2.64,2.4-3.48c0.91-1.37,1.36-2.26,1.36-2.66c0-0.48-0.19-0.8-0.58-0.97
			c-0.39-0.17-0.93-0.28-1.64-0.33v-0.78h8.94v0.78c-0.94,0.07-1.82,0.33-2.64,0.76c-0.81,0.44-1.47,1.01-1.97,1.74l-4.7,6.76
			l7.28,11.2c0.94,1.44,1.74,2.38,2.4,2.8c0.66,0.43,1.41,0.66,2.26,0.69v0.78h-11.47v-0.78l0.81-0.06
			c0.42-0.04,0.78-0.17,1.07-0.39c0.29-0.22,0.43-0.5,0.43-0.83c0-0.35-0.35-1.13-1.05-2.33c-0.33-0.6-0.82-1.42-1.48-2.45
			c-0.31-0.51-0.77-1.21-1.38-2.12c-0.61-0.9-1.13-1.67-1.54-2.31l-4.54,7.08c-0.54,0.83-0.87,1.39-1,1.67
			c-0.13,0.28-0.19,0.51-0.19,0.69c0,0.35,0.14,0.58,0.43,0.69c0.29,0.11,0.91,0.23,1.87,0.36v0.78h-8.22v-0.78
			c1-0.2,1.74-0.46,2.22-0.78s1.12-1.05,1.92-2.19l6.31-9.4l-5.17-8.08c-1.07-1.61-1.81-2.56-2.22-2.86
			c-0.41-0.3-1.3-0.51-2.66-0.64v-0.78H495.81z"/>
		<path d="M525.54,196.13v2h-5.66l-0.06,15.99c0,1.41,0.12,2.47,0.36,3.19c0.44,1.28,1.31,1.91,2.61,1.91
			c0.67,0,1.24-0.16,1.74-0.47c0.49-0.31,1.05-0.81,1.68-1.5l0.72,0.61l-0.61,0.83c-0.96,1.3-1.98,2.21-3.05,2.75
			c-1.07,0.54-2.11,0.8-3.11,0.8c-2.18,0-3.66-0.97-4.44-2.91c-0.43-1.05-0.64-2.52-0.64-4.39v-16.82h-3.03
			c-0.09-0.06-0.16-0.11-0.21-0.17s-0.07-0.13-0.07-0.22c0-0.18,0.04-0.33,0.12-0.43c0.08-0.1,0.35-0.34,0.79-0.71
			c1.28-1.05,2.2-1.91,2.76-2.57c0.57-0.66,1.89-2.39,3.98-5.2c0.24,0,0.38,0.02,0.43,0.06c0.05,0.04,0.07,0.18,0.07,0.42v6.83
			H525.54z"/>
	</g>
	<g>
		<path d="M78.99,301.48v-1.05c1.46-0.16,2.56-0.72,3.29-1.65c0.73-0.94,1.98-3.49,3.76-7.68l11.84-27.9h1.13l14.17,32.23
			c0.94,2.13,1.7,3.46,2.26,3.96c0.56,0.51,1.51,0.85,2.85,1.04v1.05h-14.46v-1.05c1.66-0.15,2.73-0.33,3.21-0.54
			c0.48-0.21,0.72-0.73,0.72-1.56c0-0.28-0.09-0.76-0.28-1.46c-0.19-0.7-0.44-1.44-0.78-2.21l-2.28-5.47H89.45
			c-1.48,3.72-2.36,5.99-2.65,6.81c-0.29,0.82-0.43,1.47-0.43,1.95c0,0.96,0.39,1.62,1.16,1.99c0.48,0.22,1.39,0.39,2.72,0.5v1.05
			H78.99z M103.47,286.88l-6.52-15.66l-6.54,15.66H103.47z"/>
		<path d="M144.78,275.89v2h-5.66l-0.06,15.99c0,1.41,0.12,2.47,0.36,3.19c0.44,1.28,1.31,1.91,2.61,1.91
			c0.67,0,1.24-0.16,1.74-0.47c0.49-0.31,1.05-0.81,1.68-1.5l0.72,0.61l-0.61,0.83c-0.96,1.3-1.98,2.21-3.05,2.75
			c-1.07,0.54-2.11,0.8-3.11,0.8c-2.18,0-3.66-0.97-4.44-2.91c-0.43-1.05-0.64-2.52-0.64-4.39v-16.82h-3.03
			c-0.09-0.06-0.16-0.11-0.21-0.17c-0.05-0.06-0.07-0.13-0.07-0.22c0-0.18,0.04-0.33,0.12-0.43c0.08-0.1,0.35-0.34,0.79-0.71
			c1.28-1.05,2.2-1.91,2.76-2.57c0.56-0.66,1.89-2.39,3.98-5.21c0.24,0,0.38,0.02,0.43,0.06c0.05,0.04,0.07,0.18,0.07,0.42v6.83
			H144.78z"/>
		<path d="M146.61,300.7c1.52-0.2,2.51-0.58,2.98-1.12c0.47-0.55,0.71-1.84,0.71-3.87v-26.65c0-1.04-0.13-1.8-0.4-2.29
			c-0.27-0.49-0.92-0.74-1.96-0.74c-0.2,0-0.4,0.01-0.6,0.04c-0.19,0.03-0.41,0.06-0.65,0.1v-1c0.81-0.24,1.82-0.53,3.01-0.87
			c1.19-0.34,2.02-0.59,2.48-0.74l2.66-0.83l0.06,0.19v17.04c1.17-1.33,2.2-2.31,3.11-2.94c1.63-1.11,3.39-1.67,5.27-1.67
			c3,0,5.04,1.26,6.14,3.78c0.59,1.33,0.89,3.08,0.89,5.25v11.33c0,1.96,0.23,3.24,0.68,3.83c0.45,0.59,1.38,0.98,2.79,1.17v0.78
			h-12.02v-0.78c1.61-0.22,2.65-0.6,3.11-1.14c0.46-0.54,0.69-1.82,0.69-3.86v-11.24c0-1.79-0.3-3.25-0.9-4.36
			c-0.6-1.11-1.74-1.67-3.4-1.67c-1.44,0-2.84,0.52-4.19,1.55c-1.35,1.04-2.03,1.71-2.03,2.03v13.69c0,2.07,0.24,3.37,0.72,3.89
			c0.48,0.52,1.51,0.89,3.08,1.11v0.78h-12.24V300.7z"/>
		<path d="M175.65,300.7c1.98-0.19,3.23-0.52,3.75-1.01c0.52-0.49,0.78-1.82,0.78-3.98v-13.24c0-1.2-0.08-2.04-0.25-2.5
			c-0.28-0.76-0.86-1.14-1.75-1.14c-0.2,0-0.4,0.02-0.6,0.06c-0.19,0.04-0.75,0.19-1.68,0.44v-0.86l1.19-0.39
			c3.24-1.05,5.5-1.85,6.77-2.39c0.52-0.22,0.85-0.33,1-0.33c0.04,0.13,0.06,0.27,0.06,0.42v19.93c0,2.11,0.25,3.43,0.76,3.97
			c0.51,0.54,1.66,0.88,3.46,1.03v0.78h-13.49V300.7z M180.06,263.59c0.56-0.57,1.24-0.86,2.05-0.86c0.8,0,1.48,0.28,2.04,0.84
			c0.56,0.56,0.85,1.25,0.85,2.06c0,0.79-0.28,1.47-0.85,2.03c-0.57,0.56-1.25,0.84-2.04,0.84c-0.81,0-1.5-0.28-2.05-0.84
			c-0.56-0.56-0.83-1.24-0.83-2.03C179.23,264.84,179.5,264.16,180.06,263.59z"/>
		<path d="M190.58,300.57c1.7-0.15,2.83-0.45,3.39-0.9c0.56-0.45,0.83-1.42,0.83-2.9v-12.52c0-1.83-0.17-3.14-0.51-3.93
			c-0.34-0.79-0.97-1.18-1.87-1.18c-0.19,0-0.43,0.02-0.74,0.07c-0.31,0.05-0.62,0.11-0.96,0.18v-0.92
			c1.05-0.37,2.13-0.75,3.24-1.14s1.87-0.67,2.3-0.83c0.92-0.35,1.87-0.75,2.85-1.19c0.13,0,0.21,0.05,0.24,0.14
			c0.03,0.09,0.04,0.29,0.04,0.58v4.55c1.19-1.65,2.33-2.93,3.44-3.86c1.1-0.93,2.25-1.39,3.44-1.39c0.95,0,1.72,0.28,2.31,0.85
			c0.59,0.56,0.89,1.27,0.89,2.12c0,0.76-0.23,1.4-0.68,1.92c-0.45,0.52-1.02,0.78-1.71,0.78c-0.7,0-1.41-0.32-2.12-0.97
			c-0.71-0.65-1.27-0.97-1.68-0.97c-0.65,0-1.44,0.52-2.39,1.57s-1.42,2.12-1.42,3.23v12.52c0,1.59,0.37,2.7,1.11,3.32
			c0.74,0.62,1.97,0.91,3.69,0.87v0.92h-13.69V300.57z"/>
		<path d="M226.45,276.14c0.74,0.39,1.45,0.93,2.14,1.61v-8.83c0-1.13-0.13-1.91-0.37-2.33c-0.25-0.43-0.85-0.64-1.79-0.64
			c-0.22,0-0.42,0.01-0.58,0.03c-0.17,0.02-0.54,0.06-1.11,0.11v-0.92l2.28-0.58c0.83-0.22,1.67-0.45,2.5-0.69
			c0.83-0.24,1.56-0.47,2.19-0.69c0.3-0.09,0.79-0.27,1.47-0.53l0.17,0.06l-0.06,2.91c-0.02,1.05-0.04,2.14-0.06,3.26
			c-0.02,1.12-0.03,2.23-0.03,3.32l-0.06,22.68c0,1.2,0.15,2.05,0.44,2.53c0.3,0.48,1.08,0.72,2.36,0.72c0.2,0,0.41,0,0.61-0.01
			c0.2-0.01,0.41-0.03,0.61-0.07v0.92c-0.11,0.04-1.45,0.5-4.03,1.39l-4.36,1.64l-0.19-0.25v-3.42c-1.04,1.13-1.93,1.93-2.69,2.42
			c-1.35,0.83-2.91,1.25-4.69,1.25c-3.15,0-5.7-1.22-7.65-3.65c-1.95-2.43-2.93-5.25-2.93-8.45c0-4.01,1.17-7.46,3.51-10.34
			c2.34-2.88,5.21-4.32,8.59-4.32C224.08,275.25,225.32,275.54,226.45,276.14z M227.25,297.73c0.89-0.85,1.33-1.66,1.33-2.42v-11.91
			c0-2.41-0.64-4.1-1.93-5.09c-1.29-0.99-2.54-1.48-3.76-1.48c-2.33,0-4.15,1.03-5.44,3.1c-1.3,2.06-1.94,4.6-1.94,7.62
			c0,2.98,0.69,5.64,2.07,7.97c1.38,2.33,3.44,3.5,6.18,3.5C225.2,299.01,226.36,298.59,227.25,297.73z"/>
		<path d="M253.07,300.7c1.72-0.17,2.89-0.51,3.5-1.04c0.61-0.53,0.92-1.56,0.92-3.1v-27.12c0-1.22-0.1-2.06-0.31-2.53
			c-0.37-0.78-1.12-1.17-2.25-1.17c-0.26,0-0.54,0.03-0.85,0.08c-0.31,0.06-0.69,0.14-1.15,0.25v-0.92c2.5-0.67,5.51-1.55,9.02-2.66
			c0.13,0,0.21,0.06,0.24,0.17c0.03,0.11,0.04,0.35,0.04,0.72v33.28c0,1.61,0.28,2.65,0.83,3.12c0.56,0.47,1.7,0.77,3.44,0.9v0.78
			h-13.44V300.7z"/>
		<path d="M268.81,300.7c1.98-0.19,3.23-0.52,3.75-1.01c0.52-0.49,0.78-1.82,0.78-3.98v-13.24c0-1.2-0.08-2.04-0.25-2.5
			c-0.28-0.76-0.86-1.14-1.75-1.14c-0.2,0-0.4,0.02-0.6,0.06c-0.19,0.04-0.75,0.19-1.68,0.44v-0.86l1.19-0.39
			c3.24-1.05,5.5-1.85,6.77-2.39c0.52-0.22,0.85-0.33,1-0.33c0.04,0.13,0.06,0.27,0.06,0.42v19.93c0,2.11,0.25,3.43,0.76,3.97
			c0.51,0.54,1.66,0.88,3.46,1.03v0.78h-13.49V300.7z M273.22,263.59c0.56-0.57,1.24-0.86,2.05-0.86c0.8,0,1.48,0.28,2.04,0.84
			c0.56,0.56,0.85,1.25,0.85,2.06c0,0.79-0.28,1.47-0.85,2.03c-0.57,0.56-1.25,0.84-2.04,0.84c-0.81,0-1.5-0.28-2.05-0.84
			c-0.56-0.56-0.83-1.24-0.83-2.03C272.39,264.84,272.67,264.16,273.22,263.59z"/>
		<path d="M284.52,300.7c1.31-0.17,2.23-0.5,2.76-0.99c0.53-0.49,0.79-1.59,0.79-3.29v-14.1c0-1.17-0.11-2-0.33-2.48
			c-0.35-0.7-1.07-1.05-2.17-1.05c-0.17,0-0.34,0.01-0.51,0.03c-0.18,0.02-0.39,0.05-0.65,0.08v-0.97c0.76-0.22,2.55-0.8,5.39-1.72
			l2.61-0.86c0.13,0,0.21,0.05,0.24,0.14c0.03,0.09,0.04,0.22,0.04,0.39v4.08c1.7-1.59,3.03-2.68,3.99-3.28
			c1.44-0.91,2.94-1.36,4.49-1.36c1.26,0,2.4,0.36,3.44,1.08c1.99,1.41,2.99,3.91,2.99,7.52v12.96c0,1.33,0.27,2.3,0.8,2.89
			c0.53,0.59,1.42,0.9,2.67,0.92v0.78h-11.85v-0.78c1.35-0.19,2.29-0.56,2.83-1.12c0.54-0.56,0.81-1.79,0.81-3.68v-11.85
			c0-1.59-0.29-2.91-0.88-3.96c-0.59-1.05-1.67-1.57-3.26-1.57c-1.09,0-2.19,0.37-3.31,1.11c-0.63,0.43-1.44,1.13-2.43,2.11v15.55
			c0,1.33,0.3,2.23,0.89,2.68c0.59,0.45,1.53,0.7,2.8,0.74v0.78h-12.13V300.7z"/>
		<path d="M331.8,278.15c1.96,1.8,2.94,4.36,2.94,7.68h-17.63c0.18,4.28,1.16,7.4,2.91,9.36c1.76,1.96,3.84,2.93,6.25,2.93
			c1.94,0,3.58-0.51,4.91-1.52c1.33-1.02,2.56-2.46,3.69-4.32l0.97,0.33c-0.76,2.35-2.18,4.53-4.26,6.53c-2.08,2-4.63,3-7.65,3
			c-3.48,0-6.17-1.31-8.06-3.94c-1.9-2.63-2.85-5.65-2.85-9.08c0-3.72,1.1-6.93,3.3-9.63c2.2-2.7,5.07-4.05,8.61-4.05
			C327.55,275.44,329.84,276.35,331.8,278.15z M318.5,280.27c-0.59,1-1.02,2.26-1.28,3.78h11.71c-0.2-1.85-0.56-3.23-1.05-4.14
			c-0.91-1.63-2.42-2.44-4.55-2.44C321.22,277.47,319.61,278.4,318.5,280.27z"/>
		<path d="M356.32,279.26c2.34-2.54,5.35-3.82,9.04-3.82c3.66,0,6.7,1.2,9.11,3.61c2.41,2.41,3.61,5.61,3.61,9.61
			c0,3.68-1.17,6.88-3.5,9.61c-2.33,2.72-5.35,4.08-9.05,4.08c-3.55,0-6.56-1.3-9.02-3.91c-2.46-2.61-3.69-5.89-3.69-9.83
			C352.81,284.92,353.98,281.8,356.32,279.26z M360.76,278.55c-1.86,1.68-2.78,4.59-2.78,8.72c0,3.29,0.75,6.37,2.24,9.22
			c1.49,2.85,3.57,4.28,6.22,4.28c2.08,0,3.68-0.95,4.8-2.86c1.12-1.91,1.68-4.4,1.68-7.49c0-3.2-0.71-6.22-2.14-9.05
			c-1.43-2.83-3.5-4.25-6.2-4.25C363.1,277.11,361.83,277.59,360.76,278.55z"/>
		<path d="M380.91,300.7c1.96-0.09,3.25-0.46,3.87-1.1c0.62-0.64,0.93-1.98,0.93-4.04v-17.82h-4.75v-1.86h4.75
			c0-2.92,0.4-5.39,1.2-7.41c1.52-3.87,4.31-5.8,8.37-5.8c1.63,0,3.09,0.32,4.38,0.97c1.29,0.65,1.93,1.52,1.93,2.61
			c0,0.61-0.22,1.16-0.66,1.64c-0.44,0.48-0.98,0.72-1.6,0.72c-0.53,0-1-0.16-1.38-0.49c-0.39-0.32-0.85-0.89-1.38-1.71l-0.47-0.72
			c-0.26-0.39-0.56-0.72-0.91-0.99c-0.35-0.27-0.84-0.4-1.46-0.4c-1.4,0-2.35,0.69-2.84,2.08c-0.28,0.74-0.41,1.71-0.41,2.91v6.58
			h6.91v1.86h-6.91v17.82c0,2.09,0.28,3.43,0.85,4.01c0.56,0.58,2.04,0.96,4.43,1.12v0.78h-14.82V300.7z"/>
		<path d="M427.41,275.89v2h-5.66l-0.06,15.99c0,1.41,0.12,2.47,0.36,3.19c0.44,1.28,1.31,1.91,2.61,1.91
			c0.67,0,1.24-0.16,1.74-0.47c0.49-0.31,1.05-0.81,1.68-1.5l0.72,0.61l-0.61,0.83c-0.96,1.3-1.98,2.21-3.05,2.75
			c-1.07,0.54-2.11,0.8-3.11,0.8c-2.18,0-3.66-0.97-4.44-2.91c-0.43-1.05-0.64-2.52-0.64-4.39v-16.82h-3.03
			c-0.09-0.06-0.16-0.11-0.21-0.17s-0.07-0.13-0.07-0.22c0-0.18,0.04-0.33,0.12-0.43c0.08-0.1,0.35-0.34,0.79-0.71
			c1.28-1.05,2.2-1.91,2.76-2.57c0.57-0.66,1.89-2.39,3.98-5.21c0.24,0,0.38,0.02,0.43,0.06c0.05,0.04,0.07,0.18,0.07,0.42v6.83
			H427.41z"/>
		<path d="M448.61,278.15c1.96,1.8,2.94,4.36,2.94,7.68h-17.63c0.19,4.28,1.16,7.4,2.92,9.36s3.84,2.93,6.25,2.93
			c1.94,0,3.58-0.51,4.91-1.52c1.33-1.02,2.56-2.46,3.69-4.32l0.97,0.33c-0.76,2.35-2.18,4.53-4.26,6.53c-2.08,2-4.63,3-7.65,3
			c-3.48,0-6.17-1.31-8.06-3.94c-1.9-2.63-2.85-5.65-2.85-9.08c0-3.72,1.1-6.93,3.3-9.63c2.2-2.7,5.07-4.05,8.61-4.05
			C444.37,275.44,446.65,276.35,448.61,278.15z M435.32,280.27c-0.59,1-1.02,2.26-1.28,3.78h11.72c-0.2-1.85-0.56-3.23-1.06-4.14
			c-0.91-1.63-2.42-2.44-4.55-2.44C438.04,277.47,436.43,278.4,435.32,280.27z"/>
		<path d="M467.13,275.97v0.78c-0.7,0.02-1.3,0.12-1.79,0.29c-0.49,0.18-0.74,0.54-0.74,1.1c0,0.35,0.49,1.34,1.47,2.97
			c0.53,0.84,1.2,1.87,2.01,3.1c1.07-1.48,1.87-2.64,2.4-3.48c0.91-1.37,1.36-2.26,1.36-2.66c0-0.48-0.19-0.81-0.58-0.97
			c-0.39-0.17-0.93-0.28-1.64-0.33v-0.78h8.94v0.78c-0.94,0.07-1.82,0.33-2.64,0.76c-0.81,0.43-1.47,1.01-1.97,1.73l-4.7,6.76
			l7.28,11.2c0.94,1.44,1.74,2.38,2.4,2.8c0.66,0.43,1.41,0.66,2.26,0.69v0.78h-11.47v-0.78l0.81-0.06
			c0.42-0.04,0.78-0.17,1.07-0.39c0.29-0.22,0.43-0.5,0.43-0.83c0-0.35-0.35-1.13-1.05-2.33c-0.33-0.6-0.82-1.42-1.48-2.45
			c-0.31-0.51-0.77-1.21-1.38-2.12c-0.61-0.9-1.13-1.67-1.54-2.31l-4.54,7.08c-0.54,0.83-0.87,1.39-1,1.67
			c-0.13,0.28-0.19,0.51-0.19,0.69c0,0.35,0.14,0.58,0.43,0.69c0.29,0.11,0.91,0.23,1.87,0.36v0.78h-8.22v-0.78
			c1-0.2,1.74-0.46,2.22-0.78s1.12-1.05,1.92-2.19l6.31-9.4l-5.17-8.08c-1.07-1.61-1.81-2.56-2.22-2.86
			c-0.41-0.3-1.3-0.51-2.66-0.64v-0.78H467.13z"/>
		<path d="M496.86,275.89v2h-5.66l-0.06,15.99c0,1.41,0.12,2.47,0.36,3.19c0.44,1.28,1.31,1.91,2.61,1.91
			c0.67,0,1.24-0.16,1.74-0.47c0.49-0.31,1.05-0.81,1.68-1.5l0.72,0.61l-0.61,0.83c-0.96,1.3-1.98,2.21-3.05,2.75
			c-1.07,0.54-2.11,0.8-3.11,0.8c-2.18,0-3.66-0.97-4.44-2.91c-0.43-1.05-0.64-2.52-0.64-4.39v-16.82h-3.03
			c-0.09-0.06-0.16-0.11-0.21-0.17s-0.07-0.13-0.07-0.22c0-0.18,0.04-0.33,0.12-0.43c0.08-0.1,0.35-0.34,0.79-0.71
			c1.28-1.05,2.2-1.91,2.76-2.57c0.57-0.66,1.89-2.39,3.98-5.21c0.24,0,0.38,0.02,0.43,0.06c0.05,0.04,0.07,0.18,0.07,0.42v6.83
			H496.86z"/>
	</g>
</g>
</svg>
